<svg id="eiPDeK8xAmv1" xmlns="http://www.w3.org/2000/svg" xmlns:xlink="http://www.w3.org/1999/xlink" viewBox="0 0 262 238" shape-rendering="geometricPrecision" text-rendering="geometricPrecision">
<style><![CDATA[
#eiPDeK8xAmv14_tr {animation: eiPDeK8xAmv14_tr__tr 3000ms linear infinite normal forwards}@keyframes eiPDeK8xAmv14_tr__tr { 0% {transform: translate(175.318703px,66.68676px) rotate(0deg)} 50% {transform: translate(175.318703px,66.68676px) rotate(25.147186deg)} 100% {transform: translate(175.318703px,66.68676px) rotate(-0.578831deg)}} #eiPDeK8xAmv15_tr {animation: eiPDeK8xAmv15_tr__tr 3000ms linear infinite normal forwards}@keyframes eiPDeK8xAmv15_tr__tr { 0% {transform: translate(171.095566px,68.263039px) rotate(0deg)} 50% {transform: translate(171.095566px,68.263039px) rotate(25.147186deg)} 100% {transform: translate(171.095566px,68.263039px) rotate(-0.578831deg)}} #eiPDeK8xAmv16_tr {animation: eiPDeK8xAmv16_tr__tr 3000ms linear infinite normal forwards}@keyframes eiPDeK8xAmv16_tr__tr { 0% {transform: translate(171.63839px,69.124783px) rotate(0deg)} 50% {transform: translate(171.63839px,69.124783px) rotate(25.147186deg)} 100% {transform: translate(171.63839px,69.124783px) rotate(-0.578831deg)}} #eiPDeK8xAmv17_tr {animation: eiPDeK8xAmv17_tr__tr 3000ms linear infinite normal forwards}@keyframes eiPDeK8xAmv17_tr__tr { 0% {transform: translate(173.806465px,82.190548px) rotate(0deg)} 50% {transform: translate(173.806465px,82.190548px) rotate(28.817829deg)} 100% {transform: translate(173.806465px,82.190548px) rotate(-2.090286deg)}} #eiPDeK8xAmv19_tr {animation: eiPDeK8xAmv19_tr__tr 3000ms linear infinite normal forwards}@keyframes eiPDeK8xAmv19_tr__tr { 0% {transform: translate(171.699867px,83.423412px) rotate(0deg)} 50% {transform: translate(171.699867px,83.423412px) rotate(28.817829deg)} 100% {transform: translate(171.699867px,83.423412px) rotate(-2.090286deg)}} #eiPDeK8xAmv22_tr {animation: eiPDeK8xAmv22_tr__tr 3000ms linear infinite normal forwards}@keyframes eiPDeK8xAmv22_tr__tr { 0% {transform: translate(175.420357px,48.513466px) rotate(0deg)} 50% {transform: translate(175.420357px,48.513466px) rotate(9.593857deg)} 100% {transform: translate(175.420357px,48.513466px) rotate(-10.353456deg)}} #eiPDeK8xAmv24_tr {animation: eiPDeK8xAmv24_tr__tr 3000ms linear infinite normal forwards}@keyframes eiPDeK8xAmv24_tr__tr { 0% {transform: translate(175.133667px,49.964973px) rotate(0deg)} 50% {transform: translate(175.133667px,49.964973px) rotate(9.593857deg)} 100% {transform: translate(175.133667px,49.964973px) rotate(-10.353456deg)}} #eiPDeK8xAmv26 {animation: eiPDeK8xAmv26_c_o 3000ms linear infinite normal forwards}@keyframes eiPDeK8xAmv26_c_o { 0% {opacity: 0} 16.666667% {opacity: 0} 50% {opacity: 1} 100% {opacity: 1}} #eiPDeK8xAmv27 {animation: eiPDeK8xAmv27_c_o 3000ms linear infinite normal forwards}@keyframes eiPDeK8xAmv27_c_o { 0% {opacity: 0} 16.666667% {opacity: 1} 100% {opacity: 1}} #eiPDeK8xAmv28 {animation: eiPDeK8xAmv28_c_o 3000ms linear infinite normal forwards}@keyframes eiPDeK8xAmv28_c_o { 0% {opacity: 0} 83.333333% {opacity: 0} 100% {opacity: 1}} #eiPDeK8xAmv29 {animation: eiPDeK8xAmv29_c_o 3000ms linear infinite normal forwards}@keyframes eiPDeK8xAmv29_c_o { 0% {opacity: 0} 50% {opacity: 0} 83.333333% {opacity: 1} 100% {opacity: 1}} #eiPDeK8xAmv30_to {animation: eiPDeK8xAmv30_to__to 3000ms linear infinite normal forwards}@keyframes eiPDeK8xAmv30_to__to { 0% {transform: translate(207.63549px,164.029305px)} 50% {transform: translate(218.969505px,165.845403px)} 100% {transform: translate(207.321495px,164.937403px)}} #eiPDeK8xAmv53 {animation: eiPDeK8xAmv53_c_o 3000ms linear infinite normal forwards}@keyframes eiPDeK8xAmv53_c_o { 0% {opacity: 0} 16.666667% {opacity: 0} 50% {opacity: 1} 100% {opacity: 1}} #eiPDeK8xAmv54 {animation: eiPDeK8xAmv54_c_o 3000ms linear infinite normal forwards}@keyframes eiPDeK8xAmv54_c_o { 0% {opacity: 0} 16.666667% {opacity: 0} 50% {opacity: 1} 100% {opacity: 1}} #eiPDeK8xAmv55 {animation: eiPDeK8xAmv55_c_o 3000ms linear infinite normal forwards}@keyframes eiPDeK8xAmv55_c_o { 0% {opacity: 0} 16.666667% {opacity: 0} 50% {opacity: 1} 100% {opacity: 1}} #eiPDeK8xAmv56 {animation: eiPDeK8xAmv56_c_o 3000ms linear infinite normal forwards}@keyframes eiPDeK8xAmv56_c_o { 0% {opacity: 0} 16.666667% {opacity: 0} 50% {opacity: 1} 100% {opacity: 1}} #eiPDeK8xAmv57 {animation: eiPDeK8xAmv57_c_o 3000ms linear infinite normal forwards}@keyframes eiPDeK8xAmv57_c_o { 0% {opacity: 0} 16.666667% {opacity: 0} 50% {opacity: 1} 100% {opacity: 1}} #eiPDeK8xAmv58 {animation: eiPDeK8xAmv58_c_o 3000ms linear infinite normal forwards}@keyframes eiPDeK8xAmv58_c_o { 0% {opacity: 0} 16.666667% {opacity: 0} 50% {opacity: 1} 100% {opacity: 1}} #eiPDeK8xAmv59 {animation: eiPDeK8xAmv59_c_o 3000ms linear infinite normal forwards}@keyframes eiPDeK8xAmv59_c_o { 0% {opacity: 0} 16.666667% {opacity: 0} 50% {opacity: 1} 100% {opacity: 1}} #eiPDeK8xAmv60 {animation: eiPDeK8xAmv60_c_o 3000ms linear infinite normal forwards}@keyframes eiPDeK8xAmv60_c_o { 0% {opacity: 0} 16.666667% {opacity: 0} 50% {opacity: 1} 100% {opacity: 1}} #eiPDeK8xAmv61 {animation: eiPDeK8xAmv61_c_o 3000ms linear infinite normal forwards}@keyframes eiPDeK8xAmv61_c_o { 0% {opacity: 0} 16.666667% {opacity: 0} 50% {opacity: 1} 100% {opacity: 1}} #eiPDeK8xAmv62 {animation: eiPDeK8xAmv62_c_o 3000ms linear infinite normal forwards}@keyframes eiPDeK8xAmv62_c_o { 0% {opacity: 0} 16.666667% {opacity: 0} 50% {opacity: 1} 100% {opacity: 1}} #eiPDeK8xAmv63 {animation: eiPDeK8xAmv63_c_o 3000ms linear infinite normal forwards}@keyframes eiPDeK8xAmv63_c_o { 0% {opacity: 0} 83.333333% {opacity: 0} 100% {opacity: 1}} #eiPDeK8xAmv64 {animation: eiPDeK8xAmv64_c_o 3000ms linear infinite normal forwards}@keyframes eiPDeK8xAmv64_c_o { 0% {opacity: 0} 83.333333% {opacity: 0} 100% {opacity: 1}} #eiPDeK8xAmv65 {animation: eiPDeK8xAmv65_c_o 3000ms linear infinite normal forwards}@keyframes eiPDeK8xAmv65_c_o { 0% {opacity: 0} 83.333333% {opacity: 0} 100% {opacity: 1}} #eiPDeK8xAmv66 {animation: eiPDeK8xAmv66_c_o 3000ms linear infinite normal forwards}@keyframes eiPDeK8xAmv66_c_o { 0% {opacity: 0} 83.333333% {opacity: 0} 100% {opacity: 1}} #eiPDeK8xAmv67 {animation: eiPDeK8xAmv67_c_o 3000ms linear infinite normal forwards}@keyframes eiPDeK8xAmv67_c_o { 0% {opacity: 0} 83.333333% {opacity: 0} 100% {opacity: 1}} #eiPDeK8xAmv68 {animation: eiPDeK8xAmv68_c_o 3000ms linear infinite normal forwards}@keyframes eiPDeK8xAmv68_c_o { 0% {opacity: 0} 83.333333% {opacity: 0} 100% {opacity: 1}} #eiPDeK8xAmv69 {animation: eiPDeK8xAmv69_c_o 3000ms linear infinite normal forwards}@keyframes eiPDeK8xAmv69_c_o { 0% {opacity: 0} 83.333333% {opacity: 0} 100% {opacity: 1}} #eiPDeK8xAmv70 {animation: eiPDeK8xAmv70_c_o 3000ms linear infinite normal forwards}@keyframes eiPDeK8xAmv70_c_o { 0% {opacity: 0} 83.333333% {opacity: 0} 100% {opacity: 1}} #eiPDeK8xAmv71 {animation: eiPDeK8xAmv71_c_o 3000ms linear infinite normal forwards}@keyframes eiPDeK8xAmv71_c_o { 0% {opacity: 0} 16.666667% {opacity: 1} 100% {opacity: 1}} #eiPDeK8xAmv72 {animation: eiPDeK8xAmv72_c_o 3000ms linear infinite normal forwards}@keyframes eiPDeK8xAmv72_c_o { 0% {opacity: 0} 16.666667% {opacity: 1} 100% {opacity: 1}} #eiPDeK8xAmv73 {animation: eiPDeK8xAmv73_c_o 3000ms linear infinite normal forwards}@keyframes eiPDeK8xAmv73_c_o { 0% {opacity: 0} 16.666667% {opacity: 1} 100% {opacity: 1}} #eiPDeK8xAmv74 {animation: eiPDeK8xAmv74_c_o 3000ms linear infinite normal forwards}@keyframes eiPDeK8xAmv74_c_o { 0% {opacity: 0} 16.666667% {opacity: 1} 100% {opacity: 1}} #eiPDeK8xAmv75 {animation: eiPDeK8xAmv75_c_o 3000ms linear infinite normal forwards}@keyframes eiPDeK8xAmv75_c_o { 0% {opacity: 0} 16.666667% {opacity: 1} 100% {opacity: 1}} #eiPDeK8xAmv76 {animation: eiPDeK8xAmv76_c_o 3000ms linear infinite normal forwards}@keyframes eiPDeK8xAmv76_c_o { 0% {opacity: 0} 16.666667% {opacity: 1} 100% {opacity: 1}} #eiPDeK8xAmv77 {animation: eiPDeK8xAmv77_c_o 3000ms linear infinite normal forwards}@keyframes eiPDeK8xAmv77_c_o { 0% {opacity: 0} 50% {opacity: 0} 83.333333% {opacity: 1} 100% {opacity: 1}} #eiPDeK8xAmv78 {animation: eiPDeK8xAmv78_c_o 3000ms linear infinite normal forwards}@keyframes eiPDeK8xAmv78_c_o { 0% {opacity: 0} 50% {opacity: 0} 83.333333% {opacity: 1} 100% {opacity: 1}} #eiPDeK8xAmv79 {animation: eiPDeK8xAmv79_c_o 3000ms linear infinite normal forwards}@keyframes eiPDeK8xAmv79_c_o { 0% {opacity: 0} 50% {opacity: 0} 83.333333% {opacity: 1} 100% {opacity: 1}} #eiPDeK8xAmv80 {animation: eiPDeK8xAmv80_c_o 3000ms linear infinite normal forwards}@keyframes eiPDeK8xAmv80_c_o { 0% {opacity: 0} 50% {opacity: 0} 83.333333% {opacity: 1} 100% {opacity: 1}} #eiPDeK8xAmv81 {animation: eiPDeK8xAmv81_c_o 3000ms linear infinite normal forwards}@keyframes eiPDeK8xAmv81_c_o { 0% {opacity: 0} 50% {opacity: 0} 83.333333% {opacity: 1} 100% {opacity: 1}} #eiPDeK8xAmv82 {animation: eiPDeK8xAmv82_c_o 3000ms linear infinite normal forwards}@keyframes eiPDeK8xAmv82_c_o { 0% {opacity: 0} 50% {opacity: 0} 83.333333% {opacity: 1} 100% {opacity: 1}} #eiPDeK8xAmv83 {animation: eiPDeK8xAmv83_c_o 3000ms linear infinite normal forwards}@keyframes eiPDeK8xAmv83_c_o { 0% {opacity: 0} 50% {opacity: 0} 83.333333% {opacity: 1} 100% {opacity: 1}} #eiPDeK8xAmv84 {animation: eiPDeK8xAmv84_c_o 3000ms linear infinite normal forwards}@keyframes eiPDeK8xAmv84_c_o { 0% {opacity: 0} 50% {opacity: 0} 83.333333% {opacity: 1} 100% {opacity: 1}} #eiPDeK8xAmv85 {animation: eiPDeK8xAmv85_c_o 3000ms linear infinite normal forwards}@keyframes eiPDeK8xAmv85_c_o { 0% {opacity: 0} 50% {opacity: 0} 83.333333% {opacity: 1} 100% {opacity: 1}} #eiPDeK8xAmv86 {animation: eiPDeK8xAmv86_c_o 3000ms linear infinite normal forwards}@keyframes eiPDeK8xAmv86_c_o { 0% {opacity: 0} 50% {opacity: 0} 83.333333% {opacity: 1} 100% {opacity: 1}} #eiPDeK8xAmv91 {animation: eiPDeK8xAmv91_c_o 3000ms linear infinite normal forwards}@keyframes eiPDeK8xAmv91_c_o { 0% {opacity: 0} 50% {opacity: 0} 83.333333% {opacity: 1} 100% {opacity: 1}} #eiPDeK8xAmv92 {animation: eiPDeK8xAmv92_c_o 3000ms linear infinite normal forwards}@keyframes eiPDeK8xAmv92_c_o { 0% {opacity: 0} 50% {opacity: 0} 83.333333% {opacity: 1} 100% {opacity: 1}} #eiPDeK8xAmv93 {animation: eiPDeK8xAmv93_c_o 3000ms linear infinite normal forwards}@keyframes eiPDeK8xAmv93_c_o { 0% {opacity: 0} 83.333333% {opacity: 0} 100% {opacity: 1}} #eiPDeK8xAmv94 {animation: eiPDeK8xAmv94_c_o 3000ms linear infinite normal forwards}@keyframes eiPDeK8xAmv94_c_o { 0% {opacity: 0} 83.333333% {opacity: 0} 100% {opacity: 1}} #eiPDeK8xAmv97_to {animation: eiPDeK8xAmv97_to__to 3000ms linear infinite normal forwards}@keyframes eiPDeK8xAmv97_to__to { 0% {transform: translate(191.260498px,213.8535px)} 50% {transform: translate(202.594513px,215.669598px)} 100% {transform: translate(190.946503px,214.761598px)}}
]]></style>
<g clip-path="url(#eiPDeK8xAmv101)"><g><path d="M159.554,101.363c0,0-13.066,25.955-26.349,43.887-5.284,7.13-10.594,12.985-15.14,15.438-4.437,2.386-8.205,6.1-11.318,10.22-8.0549,10.653-11.7819,24.004-11.7819,24.004l-33.953-50.99c0,0,1.1604-49.8514,5.2288-58.187c5.9387-12.1579,8.8056-36.7042,11.0992-41.5971c1.6929-3.6325,6.5257-22.3505,6.9899-23.733.2048-.5964,1.8157-1.5045,3.9045-1.5045c1.6792,0,4.5189,1.6129,5.2425,4.9201c3.6314,16.712-.7373,27.7314-.6963,28.2329c1.2833,12.8491-2.5666,22.3776.1365,24.8986.0956.0949.2867.0542.5461-.122c4.6827-2.9819,33.7347-45.0262,37.3117-45.9344c3.795-.9758,28.779,70.4674,28.779,70.4674Z" fill="#ffdb7d"/><path d="M105.191,184.801c0,0-.465,22.662-1.789,53.185h-85.6262c19.5635-41.434,36.5878-76.322,36.5878-76.322s48.7654,1.477,50.8274,23.137Z" fill="#d2e3fc"/><path d="M189.429,13.0808L178.917,28.3832L168.596,43.401c-.628.759-1.352,1.0165-2.144.9352-2.471-.2304-5.542-3.7815-7.932-5.7469l-.245-.2033c-3.154-2.5888-3.591-7.2514-.983-10.3823L173.06,9.08236l4.683-5.61135c2.607-3.130963,7.304-3.564687,10.457-.97588l.246.20331c3.154,2.57525,3.59,7.25137.983,10.38236Z" fill="#fdcd51"/><path d="M178.721,28.8083L168.4,43.8261c-.628.759-1.351,1.0165-2.143.9352L172.864,9.521c.028.18975,1.147,16.0072,5.857,19.2873Z" fill="#fdcd51"/><path d="M133.205,145.25c-5.284,7.13-10.594,12.985-15.14,15.438-4.437,2.386-8.205,6.1-11.318,10.22-3.577-1.654-7.6589-3.605-11.6453-5.516-4.8602-2.345-5.0377-9.19-.2867-11.725.0409-.027.0955-.054.1365-.081c4.4506-2.535,9.0245-11.467,9.0245-11.467l29.229,3.131Z" fill="#fdcd51"/><path d="M84.1116,21.1638L81.3539,32.1967c0,0,2.4028.9759,3.9455.2169s2.826-10.6534-1.1878-11.2498Z" fill="#fce29e"/><path d="M163.226,150.455h-59.155c-5.8158,0-10.5804-4.73-10.5804-10.504v-129.0883c0-5.77397,4.7646-10.504302,10.5804-10.504302h59.155c5.816,0,10.58,4.730332,10.58,10.504302v129.0883c0,5.774-4.764,10.504-10.58,10.504Z" fill="#2b478b"/><path d="M169.834,11.852v126.093c0,4.283-3.495,7.779-7.782,7.779h-56.807c-4.273,0-7.7816-3.496-7.7816-7.779v-126.093c0-4.28306,3.4946-7.77998,7.7816-7.77998h56.807c4.273,0,7.782,3.51048,7.782,7.77998Z" fill="#c0d8fb"/><path d="M162.052,4.07202L105.955,145.738h-.696c-4.273,0-7.7818-3.497-7.7818-7.78v-126.106c0-4.28306,3.4948-7.77998,7.7818-7.77998h56.793Z" fill="#cbe1fd"/><path d="M145.519,8.76209h-23.741c-1.939,0-3.522-1.57227-3.522-3.49693v-.54216c0-1.92467,1.583-3.49693,3.522-3.49693h23.741c1.939,0,3.522,1.57226,3.522,3.49693v.54216c0,1.93822-1.583,3.49693-3.522,3.49693Z" fill="#2b478b"/><g id="eiPDeK8xAmv14_tr" transform="translate(175.318703,66.68676) rotate(0)"><path d="M184.005,71.2864l-1.57.5964-10.54,3.9713c-.246.0948-.491.1762-.751.2304-3.495.8945-7.208-.9488-8.519-4.3644l-.15-.4066c-1.406-3.6596.464-7.8071,4.164-9.2031l9.83-3.7138.709-.2711l1.57-.5964c3.687-1.396,7.864.4609,9.257,4.134l.15.4066c1.42,3.6867-.451,7.8342-4.15,9.2167Z" transform="translate(-175.318703,-66.68676)" fill="#fdcd51"/></g><g id="eiPDeK8xAmv15_tr" transform="translate(171.095566,68.263039) rotate(0)"><path d="M175.445,71.5304c-1.762.6642-4.942,1.8434-6.649,2.0738-.478.0677-1.365-.1898-2.198-1.0979-.491-.5421-.969-1.3147-1.324-2.3719-.164-.5015-.301-1.003-.355-1.5181-.068-.5964-.055-1.2063.054-1.8027.096-.5421.465-1.0301,1.011-1.2876c0,0,0,0,.013,0c1.816-.8539,4.26-1.9111,6.39-2.4939c1.474-.4066,2.976.244,3.44,1.5316l.218.5964l1.133,3.0767c.465,1.2876-.3,2.7515-1.733,3.2936Z" transform="translate(-171.095566,-68.263039)" fill="#fce29e"/></g><g id="eiPDeK8xAmv16_tr" transform="translate(171.63839,69.124783) rotate(0)"><path d="M175.445,71.5303c-1.761.6642-4.942,1.8434-6.649,2.0738-.478.0677-1.365-.1898-2.198-1.0979-.082-.2033-.164-.4202-.246-.6506-.163-.5015-.3-1.003-.355-1.518-.068-.5964-.054-1.2063.055-1.8027.096-.5422.464-1.0301,1.01-1.2876c0,0,0,0,.014,0c1.816-.8539,4.259-1.9111,6.389-2.494.942-.2575,1.898-.0813,2.594.4067l1.133,3.0767c.451,1.2876-.314,2.7515-1.747,3.2936Z" transform="translate(-171.63839,-69.124783)" fill="#fdcd51"/></g><g id="eiPDeK8xAmv17_tr" transform="translate(173.806465,82.190548) rotate(0)"><path d="M179.226,86.006l-8.136,2.1957c-2.472.6642-5.038-.7861-5.721-3.2394l-.245-.9081c-.669-2.4533.791-5.0014,3.262-5.6791l8.137-2.1957c2.471-.6642,5.038.7861,5.72,3.2394l.246.9081c.669,2.4532-.792,5.0149-3.263,5.6791Z" transform="translate(-173.806465,-82.190548)" fill="#fdcd51"/></g><path d="M174.83,85.6128c-1.488.3931-4.191,1.0979-5.611,1.1657-.519.0271-1.542-.4067-2.211-1.7485-.164-.3253-.301-.7048-.41-1.1385-.096-.3931-.177-.7862-.177-1.1928-.014-.4744.054-.9352.177-1.3825.123-.4066.464-.759.915-.9217c0,0,0,0,.013,0c1.543-.5421,3.632-1.1927,5.434-1.5044c1.242-.2169,2.416.3795,2.717,1.396l.204.7319.628,2.1822c.274,1.0166-.464,2.0873-1.679,2.4126Z" fill="#fdcd51"/><g id="eiPDeK8xAmv19_tr" transform="translate(171.699867,83.423412) rotate(0)"><path d="M174.83,85.6127c-1.488.393-4.191,1.0978-5.611,1.1656-.519.0271-1.543-.4066-2.212-1.7484-.095-.366-.15-.732-.163-1.1115-.014-.4608.054-.9352.177-1.3825.123-.4066.464-.759.915-.9216c0,0,0,0,.013,0c1.543-.5422,3.632-1.1928,5.434-1.5045c1.024-.1762,2.021.2033,2.485.9081l.628,2.1822c.286,1.0165-.451,2.0873-1.666,2.4126Z" transform="translate(-171.699867,-83.423206)" fill="#fce29e"/></g><path d="M46.0221,178.851c0,0,16.7376,15.912,28.0142,22.052l8.5463-6.018v8.878c0,0,16.8058,2.955,22.1024,0v-24.194L57.5036,156.094L46.0221,178.851Z" fill="#c1daff"/><path d="M108.249,201.852c-6.499,1.328-20.506-3.741-20.506-3.741l2.2663-21.673-15.8365,18c-8.0548-2.982-20.6558-10.748-28.1372-15.574-3.727-2.412-6.1844-4.093-6.1844-4.093c10.5668-16.875,21.1882-32.665,21.1882-32.665c3.1127,6.194,10.4985,11.575,18.4987,15.872c13.2972,7.156,28.3149,11.331,28.3149,11.331-.014,12.876.396,32.543.396,32.543Z" fill="#dceaff"/><g id="eiPDeK8xAmv22_tr" transform="translate(175.420357,48.513466) rotate(0)"><path d="M183.768,55.8868c-.055.0271-.109.0407-.178.0542l-10.662,2.7108c-4.683,1.1928-9.529-1.3283-10.771-5.5978l-.628-2.1821c-1.188-4.1069,1.365-8.3899,5.72-9.786l3.522-.8946l7.14-1.8162c4.683-1.1927,9.529,1.3283,10.772,5.5978l.628,2.1822c1.174,4.0526-1.297,8.2815-5.543,9.7317Z" transform="translate(-175.420357,-48.513466)" fill="#fdcd51"/></g><path d="M178.894,52.9322l-5.174,2.3177c-.014,0-.014,0-.027.0135-.205.0543-.424.0949-.628.122-.082.0136-.178.0271-.26.0271-.041,0-.068,0-.109,0-.573-.0135-.956-.6234-.71-1.152.492-1.0573.628-2.2771.287-3.4834l-.123-.4473v-.0136l-.396-1.4638c-.314-1.1656-.997-2.1415-1.884-2.8463-.109-.0813-.218-.1627-.328-.244-1.023-.7048-.764-2.3042.437-2.6294.014,0,.028,0,.028-.0136l5.679-.8539c1.406-.3795,2.758.6913,3.14,2.0873l.45,1.6671.97,3.5512c.382,1.4096.041,2.9818-1.352,3.3614Z" fill="#fdcd51"/><g id="eiPDeK8xAmv24_tr" transform="translate(175.133667,49.964973) rotate(0)"><path d="M178.894,52.9321l-5.174,2.3177c-.014,0-.014,0-.027.0136-.123.0271-.505.0813-.997.1626-.573-.0135-.956-.6235-.71-1.1521.492-1.0572.628-2.277.287-3.4833l-.123-.4473v-.0136l-.396-1.4638c-.314-1.1656-.996-2.1415-1.884-2.8463.178-.2711.451-.4744.819-.5693.014,0,.028,0,.028-.0136l5.679-.8538c1.188-.3253,2.334.393,2.894,1.4502l.969,3.5512c.369,1.396.028,2.9683-1.365,3.3478Z" transform="translate(-175.133667,-49.964973)" fill="#fce29e"/></g><path d="M93.4907,110.864c0,0-2.3208-20.1548-4.4642-24.0854-2.1434-3.9307-3.9592-11.8055-.6553-17.6473c3.2901-5.8417,4.4369-17.0915,4.4369-17.0915c1.2833,12.8491-2.5666,22.3776.1365,24.8986.0956.0949.2867.0542.5461-.122v34.0476Z" fill="#fdcd51"/><path id="eiPDeK8xAmv26" d="M64.6709,78.0362h80.7661c2.799,0,5.079-2.2499,5.079-5.0421v-32.1093c0-2.7785-2.266-5.042-5.079-5.042h-80.7661c-2.7987,0-5.0786,2.2499-5.0786,5.042v32.1093c0,2.7922,2.2799,5.0421,5.0786,5.0421Z" opacity="0" fill="#699dee"/><path id="eiPDeK8xAmv27" d="M145.997,30.5026h-31.605c-2.348,0-4.246-1.884-4.246-4.2153v-5.9502c0-2.3313,1.898-4.2153,4.246-4.2153h31.605c2.348,0,4.246,1.884,4.246,4.2153v5.9502c0,2.3313-1.898,4.2153-4.246,4.2153Z" opacity="0" fill="#9abff6"/><path id="eiPDeK8xAmv28" d="M144.618,135.966h-36.451c-2.813,0-5.079-2.264-5.079-5.042v-7.645c0-2.792,2.28-5.042,5.079-5.042h36.437c2.813,0,5.079,2.264,5.079,5.042v7.645c.014,2.778-2.266,5.042-5.065,5.042Z" opacity="0" fill="#9abff6"/><path id="eiPDeK8xAmv29" d="M158.775,110.864h-34.43c-3.359,0-6.089-2.711-6.089-6.045v-13.3779c0-3.3343,2.73-6.0451,6.089-6.0451h34.43c3.359,0,6.089,2.7108,6.089,6.0451v13.3779c.014,3.334-2.717,6.045-6.089,6.045Z" opacity="0" fill="#fdcd51"/><g id="eiPDeK8xAmv30_to" transform="translate(207.63549,164.029305)"><g transform="translate(-207.63549,-164.029304)"><path d="M256.115,238h-62.813c-3.017-2.006-18.649-12.592-25.12-20.494-1.366-1.667-6.39-16.102-10.239-27.799-2.403-7.319-4.369-13.567-4.697-15.004-.109-.502-.191-1.491-.232-2.833v-.013c-.164-4.785.055-14.029.287-21.362v-.04-.095c.014-.325.027-.637.027-.949v-.013c0-.027,0-.068,0-.095.041-1.274.082-2.481.123-3.565.096-2.724.178-4.784.218-5.584l.014-.38c.096-.054,3.126-1.653,7.154,1.234.969.705,1.87,2.385,2.703,4.581.532,1.41,1.024,3.022,1.474,4.717c1.762,6.533,3.031,14.353,3.7,16.441c1.092,3.388,13.925,18.257,14.731,19.179.014.013.027.027.041.04v-23.489l-9.693-25.752-3.987-10.572-1.993-5.314c0,0-3.072-5.001-5.638-11.019-1.133-2.629-2.157-5.462-2.799-8.146-.15-.637-.287-1.274-.382-1.8974-.382-2.2771-.41-4.378.123-6.0858.942-3.0496,3.044-3.6324,4.669-3.5646.164,0,.327.0135.491.0406.164.0136.314.0542.464.0949.287.0813.56.1898.806.3388.409.244.778.5693,1.051.9759c0,0,1.365,1.7756,3.208,4.1611c1.215,1.5723,2.622,3.402,3.987,5.1775c2.416,3.158,4.655,6.099,5.283,6.953c3.331,4.663,12.314,19.857,12.314,19.857l10.513.434c1.665.067,3.249.731,4.464,1.856c3.741,3.47,11.795,10.966,12.792,12.077c0,.366,6.266,3.361,11.099,6.018c3.454,1.45,10.035,6.601,10.035,6.601c1.365,1.193,2.402,2.385,2.921,3.524c2.253,4.866,8.369,47.222,11.29,68.163.956,6.736,1.57,11.249,1.611,11.602Z" fill="#ffdb7d"/><path d="M191.404,127.725c0,0,9.734,15.777,11.031,16.495c1.283.705,6.307,1.708,6.881,0c.559-1.708-17.912-16.495-17.912-16.495Z" fill="#fdcd51"/><path d="M240.347,154.765c-.014-.013-.027-.027-.055-.041c0,0-6.58-5.15-10.034-6.6-4.437-2.44-10.089-5.164-10.976-5.883c1.037,1.166,8.287,9.325,11.072,9.935c2.457.542,8.027,2.047,9.993,2.589Z" fill="#fdcd51"/><path d="M183.499,185.966v-23.489c0,0,5.625,9.339,6.048,14.449.437,5.123-2.334,13.418-6.048,9.04Z" fill="#fdcd51"/><path d="M163.117,99.7903c-.819-1.396-2.294-3.9306-2.799-5.3538-.137-.4066-.123-1.2063.369-2.0602.3-.515.764-1.0436,1.474-1.518.328-.2169.669-.4202,1.038-.5557.423-.1491.873-.2305,1.324-.244.409,0,.833.2304,1.133.6506.969,1.4096,2.212,3.3343,3.044,5.0692.588,1.2063.396,2.5888-.45,3.1987l-.396.2846-2.021,1.4643c-.846.623-2.047.203-2.716-.9357Z" fill="#ffd3b6"/><path d="M163.117,99.7906c-.819-1.3961-2.294-3.9307-2.799-5.3538-.137-.4067-.123-1.2063.369-2.0602.136-.1085.273-.2169.423-.3118.327-.2168.669-.4202,1.037-.5557.424-.1491.874-.2304,1.325-.244.409,0,.832.2305,1.133.6506.969,1.4096,2.211,3.3343,3.044,5.0692.369.7726.437,1.6129.205,2.2771l-2.02,1.464c-.847.623-2.048.203-2.717-.9354Z" fill="#fce29e"/><path d="M262.314,238h-67.647c3.386-1.328,16.369-6.249,29.83-9.624.027,0,.041-.013.068-.013c11.55-2.901,23.455-4.663,29.912-2.02l.041.068L262.314,238Z" fill="#d2e3fc"/><path d="M153.342,149.303c1.147-.42,2.744-.691,3.522.596c1.215,2.006-3.29,19.735-3.85,21.958l.328-22.554Z" fill="#fdcd51"/><path d="M153.683,139.774l-.382,10.722c0,0,2.266.366,3.563-.597c1.297-.962.601-10.26-3.181-10.125Z" fill="#fdcd51"/></g></g><path d="M217.958,39.5972h-13.161c-3.468,0-6.294-2.8192-6.294-6.2484v-10.7618c0-3.4427,2.84-6.2484,6.294-6.2484h13.161c3.467,0,6.293,2.8192,6.293,6.2484v10.7483c.014,3.4427-2.826,6.2619-6.293,6.2619Z" fill="#dfebfd"/><path d="M6.22596,100.197h39.44114c3.14,0,5.7202,2.548,5.7202,5.679v17.187c0,2.873-2.3618,5.218-5.256,5.218h-1.0103l1.8976,7.97-11.932-7.97h-29.18829c-3.14,0-5.706609-2.548-5.706609-5.666v-16.386c-.013652-3.321,2.716779-6.032,6.034259-6.032Z" fill="#dfebfd"/><path d="M5.17479,112.667h41.12031c.5598,0,1.024-.461,1.024-1.017s-.4642-1.016-1.024-1.016h-41.12031c-.55974,0-1.02391.46-1.02391,1.016c0,.569.46417,1.017,1.02391,1.017Z" fill="#cbe1fd"/><path d="M5.17479,117.194h41.12031c.5598,0,1.024-.461,1.024-1.017s-.4642-1.016-1.024-1.016h-41.12031c-.55974,0-1.02391.46-1.02391,1.016c0,.569.46417,1.017,1.02391,1.017Z" fill="#cbe1fd"/><path d="M5.17479,121.721h41.12031c.5598,0,1.024-.461,1.024-1.017c0-.555-.4642-1.016-1.024-1.016h-41.12031c-.55974,0-1.02391.461-1.02391,1.016c0,.57.46417,1.017,1.02391,1.017Z" fill="#cbe1fd"/><path d="M27.578,105.646h17.4611c.669,0,1.215-.542,1.215-1.207c0-.664-.546-1.206-1.215-1.206h-17.4611c-.669,0-1.2151.542-1.2151,1.206c0,.665.5461,1.207,1.2151,1.207Z" fill="#cbe1fd"/><path d="M12.5742,105.646h10.5122c.5324,0,.9556-.434.9556-.949v-.502c0-.528-.4369-.948-.9556-.948h-10.5122c-.5325,0-.9557.433-.9557.948v.502c0,.515.4369.949.9557.949Z" fill="#cbe1fd"/><path d="M204.415,108.912l24.819,8.051-14.867-14.38-1.502,3.524-6.389.027-2.061,2.778Z" fill="#9ec3f6"/><path d="M229.234,116.963L209.971,102.42l-20.574-4.6629l39.837,19.2059Z" fill="#fff"/><path d="M214.367,102.582l14.867,14.381-9.911-20.141-4.956,5.76Z" fill="#fff"/><path d="M58.1316,17.1655L34.9365,20.4456L50.3362,10.0361l.7782,3.3343l5.6383,1.0166l1.3789,2.7785Z" fill="#9ec3f6"/><path d="M34.9365,20.4456l19.3042-9.8809l18.9082-.94873L34.9365,20.4456Z" fill="#fff"/><path d="M50.3362,10.0361L34.9365,20.4455L46.8549,4.16724l3.4813,5.86886Z" fill="#fff"/><path id="eiPDeK8xAmv53" d="M94.5418,55.3605c0,3.0089-1.0239,5.7739-2.7304,7.9832-.5734.732-1.2151,1.4096-1.925,2.006-2.2935,1.9382-5.2697,3.1039-8.5189,3.1039-2.9489,0-5.6657-.9624-7.8637-2.5888-.9693-.7184-1.8294-1.5587-2.5666-2.5075-1.7202-2.2093-2.7304-4.9743-2.7304-7.9833c0-7.2243,5.8977-13.0796,13.1743-13.0796s13.1607,5.8418,13.1607,13.0661Z" opacity="0" fill="#fff"/><path id="eiPDeK8xAmv54" d="M86.6509,61.5409c-.041-.0407-.0683-.0814-.1092-.1085-.1502-.1219-.3004-.1897-.9147-.2846-.314-.0542-.7372-.1084-1.3516-.1898c0,0-.1365-.0135-.2048-.0135-.0409,0-.0955-.0136-.1501-.0136-.1775-.0948-.2185-.8132-.2185-1.5722c0-.0542,0-.1084,0-.1762c0-.2846.0137-.5693.0273-.8268c0-.0136,0-.0271,0-.0407.3823.0271.628.0271.628.0271.6963-.0542,1.1332-1.9246,1.297-3.4291c0,0,.3413-.8268.3413-1.7214c0-.5015-.1092-1.0301-.4505-1.4367-.1775-.2169-.3413-.3524-.4915-.4337-.041-.0407-.0819-.0813-.1365-.122-.6553-.7184-3.3039-3.4156-5.0513-1.8569-.041-.1491-.6144-1.9111-3.3585-1.3283.1775-.0135,1.3925-.1355,1.7475.3524-.0546-.0271-1.1058-.4879-1.7884-.0813-.314.1897-.5052.5828-.6144.9894c0,0,0,0,0,.0136c0,0,0,0,0,.0135v.0136c-.0136.0542-.0273.1084-.041.1626c0,.0136,0,.0136,0,.0272c0,0,0,0,0,.0135-.0819.4202-.0819.8268-.0272,1.0301.1092.4202.86,1.6943,1.3652,1.6943.1911,0,.3959-.0678.5734-.1356-.082.2304-.1502.4744-.2048.7455-.5325,2.4939,1.1331,4.3915,1.9932,3.9171.5597-.2982.9693.6641.9693.6641-.0819,1.8298-.587,3.009-.9557,3.3072-.1365.0135-.4232.0542-.7918.1084c0,0-1.2696.1356-2.2389.5557-.0137,0-.0137,0-.0273.0136-.2185.0949-.4096.1897-.5461.2982-.0683.0542-.1366.122-.1775.1897-.0273.0271-.041.0542-.0546.0814-.3277.6099-.6553,1.5316-.9693,2.6159c1.8567,1.3825,4.1775,2.1957,6.6759,2.1957c2.7577,0,5.2698-.9894,7.222-2.6295-.6962-1.5316-1.5154-2.3041-1.9659-2.6294Z" opacity="0" fill="#2b478b"/><path id="eiPDeK8xAmv55" d="M118.529,48.7596h-14.977c-.518,0-.942-.4202-.942-.9352v-.4473c0-.515.424-.9352.942-.9352h14.977c.519,0,.942.4202.942.9352v.4473c0,.515-.423.9352-.942.9352Z" opacity="0" fill="#fff"/><path id="eiPDeK8xAmv56" d="M118.706,57.1089h-15.331c-.423,0-.765-.3389-.765-.7591s.342-.759.765-.759h15.331c.423,0,.765.3389.765.759s-.342.7591-.765.7591Z" opacity="0" fill="#fff"/><path id="eiPDeK8xAmv57" d="M111.921,60.687h-8.724c-.327,0-.587-.2575-.587-.5828v-.3524c0-.3253.26-.5829.587-.5829h8.724c.328,0,.587.2576.587.5829v.3524c0,.3117-.273.5828-.587.5828Z" opacity="0" fill="#fff"/><path id="eiPDeK8xAmv58" d="M129.696,60.687h-14.089c-.396,0-.737-.3253-.737-.7319v-.0542c0-.3931.328-.732.737-.732h14.089c.396,0,.737.3253.737.732v.0542c-.013.4066-.341.7319-.737.7319Z" opacity="0" fill="#fff"/><path id="eiPDeK8xAmv59" d="M142.857,57.1089h-20.096c-.423,0-.765-.3389-.765-.7591s.342-.759.765-.759h20.096c.423,0,.765.3389.765.759s-.342.7591-.765.7591Z" opacity="0" fill="#fff"/><path id="eiPDeK8xAmv60" d="M118.706,64.2651h-15.331c-.423,0-.765-.3388-.765-.759s.342-.759.765-.759h15.331c.423,0,.765.3388.765.759s-.342.759-.765.759Z" opacity="0" fill="#fff"/><path id="eiPDeK8xAmv61" d="M142.857,64.2651h-20.096c-.423,0-.765-.3388-.765-.759s.342-.759.765-.759h20.096c.423,0,.765.3388.765.759s-.342.759-.765.759Z" opacity="0" fill="#fff"/><path id="eiPDeK8xAmv62" d="M133.109,48.7596h-10.744c-.45,0-.805-.366-.805-.7997v-.7183c0-.4473.368-.7997.805-.7997h10.744c.451,0,.806.3659.806.7997v.7183c0,.4473-.369.7997-.806.7997Z" opacity="0" fill="#fff"/><path id="eiPDeK8xAmv63" d="M119.553,123.266h-10.635c-.369,0-.669-.298-.669-.664v-.312c0-.366.3-.664.669-.664h10.635c.368,0,.669.298.669.664v.312c.013.366-.301.664-.669.664Z" opacity="0" fill="#699dee"/><path id="eiPDeK8xAmv64" d="M119.689,127.481h-10.894c-.301,0-.546-.244-.546-.542s.245-.542.546-.542h10.894c.301,0,.546.244.546.542-.013.298-.245.542-.546.542Z" opacity="0" fill="#699dee"/><path id="eiPDeK8xAmv65" d="M114.856,130.029h-6.198c-.232,0-.409-.189-.409-.406v-.258c0-.23.191-.407.409-.407h6.198c.232,0,.41.19.41.407v.258c.014.217-.178.406-.41.406Z" opacity="0" fill="#699dee"/><path id="eiPDeK8xAmv66" d="M127.498,130.029h-10.02c-.287,0-.519-.23-.519-.515v-.04c0-.285.232-.516.519-.516h10.02c.287,0,.519.231.519.516v.04c0,.285-.232.515-.519.515Z" opacity="0" fill="#699dee"/><path id="eiPDeK8xAmv67" d="M136.864,127.481h-14.294c-.301,0-.546-.244-.546-.542s.245-.542.546-.542h14.294c.3,0,.546.244.546.542-.014.298-.26.542-.546.542Z" opacity="0" fill="#699dee"/><path id="eiPDeK8xAmv68" d="M119.689,132.577h-10.894c-.301,0-.546-.244-.546-.542s.245-.542.546-.542h10.894c.301,0,.546.244.546.542-.013.298-.245.542-.546.542Z" opacity="0" fill="#699dee"/><path id="eiPDeK8xAmv69" d="M136.864,132.577h-14.294c-.301,0-.546-.244-.546-.542s.245-.542.546-.542h14.294c.3,0,.546.244.546.542-.014.298-.26.542-.546.542Z" opacity="0" fill="#699dee"/><path id="eiPDeK8xAmv70" d="M129.928,123.266h-7.645c-.314,0-.573-.258-.573-.569v-.515c0-.312.259-.57.573-.57h7.645c.314,0,.574.258.574.57v.515c0,.311-.26.569-.574.569Z" opacity="0" fill="#699dee"/><path id="eiPDeK8xAmv71" d="M126.611,20.5409h-10.635c-.369,0-.669-.2982-.669-.6641v-.3118c0-.3659.3-.6641.669-.6641h10.635c.369,0,.669.2982.669.6641v.3118c0,.3659-.3.6641-.669.6641Z" transform="translate(0 0.4382)" opacity="0" fill="#699dee"/><path id="eiPDeK8xAmv72" d="M126.747,24.7691h-10.894c-.3,0-.546-.2439-.546-.5421s.246-.5422.546-.5422h10.894c.301,0,.546.244.546.5422-.013.2982-.245.5421-.546.5421Z" transform="translate(0 0.4382)" opacity="0" fill="#699dee"/><path id="eiPDeK8xAmv73" d="M121.914,27.3173h-6.198c-.232,0-.409-.1897-.409-.4066v-.2575c0-.2304.191-.4066.409-.4066h6.198c.233,0,.41.1897.41.4066v.2575c.014.2169-.177.4066-.41.4066Z" opacity="0" fill="#699dee"/><path id="eiPDeK8xAmv74" d="M134.556,27.3173h-10.02c-.287,0-.519-.2304-.519-.515v-.0407c0-.2846.232-.515.519-.515h10.02c.287,0,.519.2304.519.515v.0407c0,.2846-.232.515-.519.515Z" opacity="0" fill="#699dee"/><path id="eiPDeK8xAmv75" d="M143.922,24.7691h-14.294c-.3,0-.546-.2439-.546-.5421s.246-.5422.546-.5422h14.294c.3,0,.546.244.546.5422-.014.2982-.259.5421-.546.5421Z" transform="translate(0 0.4382)" opacity="0" fill="#699dee"/><path id="eiPDeK8xAmv76" d="M136.987,20.5403h-7.646c-.314,0-.573-.2575-.573-.5693v-.515c0-.3118.259-.5693.573-.5693h7.646c.314,0,.573.2575.573.5693v.515c0,.3253-.259.5693-.573.5693Z" transform="translate(0 0.4382)" opacity="0" fill="#699dee"/><path id="eiPDeK8xAmv77" d="M136.017,91.8748h-11.645c-.41,0-.737-.3253-.737-.7319v-.3524c0-.4066.327-.7319.737-.7319h11.645c.41,0,.737.3253.737.7319v.3524c0,.3931-.327.7319-.737.7319Z" opacity="0" fill="#fff"/><path id="eiPDeK8xAmv78" d="M136.154,96.4967h-11.932c-.328,0-.587-.2711-.587-.5828c0-.3253.273-.5828.587-.5828h11.932c.327,0,.587.271.587.5828.013.3117-.26.5828-.587.5828Z" opacity="0" fill="#fff"/><path id="eiPDeK8xAmv79" d="M130.884,99.2753h-6.785c-.246,0-.451-.2034-.451-.4473v-.2711c0-.244.205-.4473.451-.4473h6.785c.246,0,.451.2033.451.4473v.2711c0,.2439-.205.4473-.451.4473Z" opacity="0" fill="#fff"/><path id="eiPDeK8xAmv80" d="M144.714,99.2751h-10.963c-.314,0-.573-.2575-.573-.5692v-.0407c0-.3117.259-.5693.573-.5693h10.963c.314,0,.573.2576.573.5693v.0407c0,.3117-.259.5692-.573.5692Z" opacity="0" fill="#fff"/><path id="eiPDeK8xAmv81" d="M154.967,96.4967h-15.646c-.327,0-.587-.2711-.587-.5828c0-.3253.273-.5828.587-.5828h15.646c.327,0,.587.271.587.5828c0,.3117-.273.5828-.587.5828Z" opacity="0" fill="#fff"/><path id="eiPDeK8xAmv82" d="M136.154,102.068h-11.932c-.328,0-.587-.272-.587-.583c0-.326.273-.583.587-.583h11.932c.327,0,.587.271.587.583.013.311-.26.583-.587.583Z" opacity="0" fill="#fff"/><path id="eiPDeK8xAmv83" d="M154.967,102.068h-15.646c-.327,0-.587-.272-.587-.583c0-.326.273-.583.587-.583h15.646c.327,0,.587.271.587.583c0,.311-.273.583-.587.583Z" opacity="0" fill="#fff"/><path id="eiPDeK8xAmv84" d="M136.154,104.968h-11.932c-.328,0-.587-.271-.587-.583c0-.325.273-.583.587-.583h11.932c.327,0,.587.271.587.583.013.312-.26.583-.587.583Z" opacity="0" fill="#fff"/><path id="eiPDeK8xAmv85" d="M154.967,104.968h-15.646c-.327,0-.587-.271-.587-.583c0-.325.273-.583.587-.583h15.646c.327,0,.587.271.587.583s-.273.583-.587.583Z" opacity="0" fill="#fff"/><path id="eiPDeK8xAmv86" d="M147.376,91.8747h-8.369c-.341,0-.628-.2846-.628-.6235v-.5557c0-.3388.287-.6235.628-.6235h8.369c.341,0,.628.2847.628.6235v.5557c0,.3389-.287.6235-.628.6235Z" opacity="0" fill="#fff"/><path d="M108.426,11.9608l-.805.5828-.819-.5692c.177-.2576.477-.4202.819-.4202.327,0,.628.1626.805.4066Z" fill="#fff"/><path d="M107.621,10.1445c-.819,0-1.529.4067-1.966,1.0166l.519.3524c.327-.4473.86-.7455,1.46-.7455.601,0,1.12.2846,1.447.7455l.519-.366c-.464-.6099-1.174-1.003-1.979-1.003Z" fill="#fff"/><path d="M107.621,7.47437c-1.72,0-3.25.85389-4.164,2.15507l.519.3524c.805-1.13853,2.143-1.884,3.658-1.884c1.488,0,2.826.73192,3.632,1.85689l.505-.36596c-.928-1.27407-2.444-2.1144-4.15-2.1144Z" fill="#fff"/><path d="M107.621,8.93823c-1.229,0-2.308.59638-2.976,1.51807l.518.3524c.546-.759,1.447-1.26054,2.458-1.26054c1.01,0,1.897.48794,2.443,1.23344l.506-.366c-.656-.88099-1.734-1.47737-2.949-1.47737Z" fill="#fff"/><path id="eiPDeK8xAmv91" d="M103.074,97.0932c0,1.1792.396,2.2635,1.079,3.1308.218.285.478.556.751.786.273.231.573.434.901.61.723.393,1.556.61,2.444.61c1.105,0,2.129-.339,2.962-.922.041-.027.082-.054.123-.094.382-.285.724-.61,1.01-.99.669-.8673,1.079-1.9516,1.079-3.1308c0-2.8327-2.321-5.1369-5.174-5.1369-2.854,0-5.175,2.3042-5.175,5.1369Z" opacity="0" fill="#fff"/><path id="eiPDeK8xAmv92" d="M109.655,100.386l-.478-.4198c-.041.0136-.082.0136-.123.0271-.082-.0542-.177-.122-.273-.1762.027-.1897.055-.3659.082-.5286.068-.5557.082-.881.082-.9352.246-.0136.423-.0407.423-.0407.478-.1084.505-1.7349.396-2.5752.096,0,.178-.0136.259-.0542.355-.1627.383-.7048.383-.7048s-.11.1897-.26.2575c0,0,.601-.8268-.095-1.3825-.697-.5693-1.406-.1898-1.816-.1762-.887.0542-1.474.1084-1.761.6912-.287.5693-.178,2.1551.382,2.7379.014.0542.014.1085.027.1627.028.2033.11.3795.219.515-.123.6777-.41,1.1928-.655,1.5316-.178.1356-.328.2982-.478.5151l-.014.0135c-.273.3798-.491.8808-.669,1.4498c0,0,0,0,0,.014.287.203.614.38.942.515.027.014.041.014.068.027h.014c.041.014.068.027.109.041.082.041.178.068.26.095.095.027.191.054.286.081.041.014.082.027.137.027.041.014.082.014.123.027h.013c.028,0,.055.014.082.014.055.013.123.027.178.027.013,0,.027,0,.041,0c.041,0,.068.013.095.013.055,0,.096.014.137.014.054,0,.109.014.164.014.054,0,.109,0,.15.013.054,0,.109,0,.164,0c.054,0,.109,0,.177,0h.014c.013,0,.027,0,.041,0c.027,0,.054,0,.082,0c0,0,0,0,.013,0c.055,0,.11,0,.164-.013.696-.068,1.365-.271,1.952-.583-.314-.515-.696-.908-1.037-1.234Z" opacity="0" fill="#699dee"/><path id="eiPDeK8xAmv93" d="M153.874,126.953c0,1.192.41,2.277,1.079,3.158.218.284.478.555.764.786.901.759,2.089,1.22,3.372,1.22c1.161,0,2.239-.38,3.113-1.03.382-.285.724-.624,1.01-.99.683-.867,1.079-1.965,1.079-3.158c0-2.86-2.335-5.178-5.215-5.178-2.881,0-5.202,2.332-5.202,5.192Z" opacity="0" fill="#fff"/><path id="eiPDeK8xAmv94" d="M161.738,129.88c0-.013-.014-.027-.027-.041-.028-.027-.055-.054-.082-.081-.069-.054-.151-.095-.26-.135c0,0,0,0-.013,0-.451-.19-1.052-.258-1.052-.258-.163-.027-.3-.041-.368-.054-.178-.136-.41-.691-.451-1.545c0,0,.191-.448.451-.312.409.217,1.174-.664.928-1.83-.027-.122-.055-.244-.095-.339.081.041.177.068.273.068.232,0,.587-.596.641-.786.055-.203,0-.854-.327-1.044-.314-.189-.806.027-.833.041.164-.217.71-.176.805-.163-1.269-.257-1.542.556-1.556.624-.806-.732-2.048.528-2.348.867-.028.014-.041.041-.068.054-.069.041-.151.109-.233.204-.163.19-.204.433-.204.677c0,.421.163.8.163.8.069.705.274,1.572.601,1.6c0,0,.109,0,.287-.014c0,.014,0,.014,0,.027c0,.122.014.258.014.38v.081c0,.352-.028.691-.096.732-.027,0-.055,0-.068,0-.028,0-.096.013-.096.013-.287.041-.491.068-.628.095-.287.041-.355.082-.423.136-.014.013-.027.027-.055.054-.204.163-.587.515-.928,1.206.915.759,2.089,1.22,3.372,1.22c1.16,0,2.239-.379,3.113-1.03-.123-.542-.287-.962-.437-1.247Z" opacity="0" fill="#fdcd51"/><path d="M153.874,23.0068c0,1.1928.41,2.2771,1.079,3.1581.218.2847.478.5557.764.7861.901.7591,2.089,1.2199,3.372,1.2199c1.161,0,2.239-.3795,3.113-1.0301.382-.2846.724-.6235,1.01-.9894.683-.8675,1.079-1.9654,1.079-3.1581c0-2.8599-2.335-5.1776-5.215-5.1776-2.881,0-5.202,2.3313-5.202,5.1911Z" fill="#fff"/><path d="M161.738,25.9348c0-.0136-.014-.0271-.027-.0407-.028-.0271-.055-.0542-.082-.0813-.069-.0542-.151-.0949-.26-.1356c0,0,0,0-.013,0-.451-.1897-1.052-.2575-1.052-.2575-.163-.0271-.3-.0406-.368-.0542-.041-.0407-.082-.0949-.137-.1762-.15-.2575-.286-.7319-.314-1.3689c0,0,.191-.4473.451-.3118.409.2169,1.174-.6641.928-1.8298-.027-.122-.054-.2439-.095-.3388.081.0406.177.0678.273.0678.232,0,.587-.5964.641-.7862.055-.2033,0-.8539-.327-1.0436-.314-.1898-.806.0271-.833.0406.164-.2168.71-.1762.805-.1626-1.269-.2575-1.542.5557-1.556.6235-.806-.7319-2.048.5286-2.348.8674-.028.0136-.041.0407-.068.0542-.069.0407-.151.1085-.233.2033-.163.1898-.204.4338-.204.6777c0,.4202.163.7997.163.7997.069.7048.274,1.5723.601,1.5994c0,0,.109,0,.287-.0136c0,.0136,0,.0136,0,.0271c0,.122.014.2576.014.3796v.0813c0,.3524-.028.6912-.096.7319-.027,0-.055,0-.068,0-.028,0-.096.0135-.096.0135-.287.0407-.491.0678-.628.0949-.287.0542-.355.0813-.423.1356-.014.0135-.027.0406-.055.0542-.204.1491-.587.515-.928,1.2063.055.0406.096.0813.15.122.014,0,.014.0135.027.0135.041.0271.082.0542.123.0813.028.0271.055.0407.082.0678.028.0136.055.0407.082.0542.041.0271.082.0542.123.0813.027.0136.055.0407.082.0543.041.0271.068.0406.109.0677s.082.0407.123.0678c0,0,0,0,.014,0l.013.0136c.028.0135.069.0406.096.0542.014,0,.027.0135.027.0135.014.0136.041.0136.055.0271.013.0136.041.0136.054.0271.041.0136.082.0407.123.0543s.082.0406.123.0542c.014.0135.041.0135.055.0271.013,0,.041.0135.054.0271.041.0135.082.0271.123.0407s.082.0271.123.0406.068.0271.109.0271h.014c.027,0,.041.0136.068.0136.123.0406.246.0677.382.0813.055.0136.11.0271.164.0271.014,0,.028,0,.041,0h.014c.041,0,.068.0136.109.0136.014,0,.014,0,.027,0h.014c.041,0,.068.0135.096.0135h.013c.014,0,.028,0,.028,0c.054,0,.122.0136.177.0136h.014c.013,0,.041,0,.054,0c.014,0,.028,0,.041,0c.055,0,.123,0,.178,0c1.16,0,2.239-.3795,3.112-1.0301-.054-.488-.218-.9217-.368-1.2063Z" fill="#fdcd51"/><g id="eiPDeK8xAmv97_to" transform="translate(191.260498,213.8535)"><path d="M224.565,228.349L205.807,238h-12.492c-3.017-2.006-18.649-12.592-25.12-20.494-1.365-1.667-6.389-16.102-10.239-27.799.519,1.559,11.277,24.302,14.335,26.891s19.154,17.647,23.591,17.485c4.3-.149,27.209-5.381,28.629-5.707.013-.013.027-.013.054-.027Z" transform="translate(-191.260498,-213.8535)" fill="#fdcd51"/></g><path d="M108.249,201.852c-6.499,1.328-20.506-3.741-20.506-3.741l2.2663-21.673-15.8365,18c-8.0548-2.982-20.6558-10.749-28.1372-15.574c19.1814-2.074,33.5025-20.873,33.5025-20.873c13.2972,7.156,28.3149,11.331,28.3149,11.331-.014,12.863.396,32.53.396,32.53Z" fill="#cbe1fd"/><path d="M63.6471,182.171c.0136-1.45,1.2014-2.602,2.6622-2.589c1.4607.014,2.6212,1.193,2.6075,2.643-.0136,1.451-1.2014,2.603-2.6622,2.589-1.4607-.027-2.6212-1.206-2.6075-2.643Z" fill="#ffdb7d"/><rect width="19.2014" height="13.554" rx="0" ry="0" transform="translate(201.899 22.2661)" fill="none"/></g><clipPath id="eiPDeK8xAmv101"><rect width="262" height="238" rx="0" ry="0" fill="#fff"/></clipPath></g></svg>
