<svg id="eWcdClYftyr1" xmlns="http://www.w3.org/2000/svg" xmlns:xlink="http://www.w3.org/1999/xlink" viewBox="0 0 725 583" shape-rendering="geometricPrecision" text-rendering="geometricPrecision">
<style><![CDATA[
#eWcdClYftyr2 {animation: eWcdClYftyr2_c_o 4000ms linear infinite normal forwards}@keyframes eWcdClYftyr2_c_o { 0% {opacity: 0} 100% {opacity: 1}} #eWcdClYftyr4 {animation: eWcdClYftyr4_c_o 4000ms linear infinite normal forwards}@keyframes eWcdClYftyr4_c_o { 0% {opacity: 0} 75% {opacity: 0} 100% {opacity: 1}} #eWcdClYftyr5 {animation: eWcdClYftyr5_c_o 4000ms linear infinite normal forwards}@keyframes eWcdClYftyr5_c_o { 0% {opacity: 0} 75% {opacity: 0} 100% {opacity: 1}} #eWcdClYftyr6 {animation: eWcdClYftyr6_c_o 4000ms linear infinite normal forwards}@keyframes eWcdClYftyr6_c_o { 0% {opacity: 0} 75% {opacity: 0} 100% {opacity: 1}} #eWcdClYftyr7 {animation: eWcdClYftyr7_c_o 4000ms linear infinite normal forwards}@keyframes eWcdClYftyr7_c_o { 0% {opacity: 0} 75% {opacity: 0} 100% {opacity: 1}} #eWcdClYftyr8 {animation: eWcdClYftyr8_c_o 4000ms linear infinite normal forwards}@keyframes eWcdClYftyr8_c_o { 0% {opacity: 0} 75% {opacity: 0} 100% {opacity: 1}} #eWcdClYftyr9_tr {animation: eWcdClYftyr9_tr__tr 4000ms linear infinite normal forwards}@keyframes eWcdClYftyr9_tr__tr { 0% {transform: translate(584.691406px,295.704026px) rotate(0deg)} 50% {transform: translate(584.691406px,295.704026px) rotate(-7.521795deg)} 100% {transform: translate(584.691406px,295.704026px) rotate(2.317804deg)}} #eWcdClYftyr16 {animation: eWcdClYftyr16_c_o 4000ms linear infinite normal forwards}@keyframes eWcdClYftyr16_c_o { 0% {opacity: 0} 25% {opacity: 0} 50% {opacity: 1} 100% {opacity: 1}} #eWcdClYftyr57_ts {animation: eWcdClYftyr57_ts__ts 4000ms linear infinite normal forwards}@keyframes eWcdClYftyr57_ts__ts { 0% {transform: translate(495.747498px,274.483871px) scale(1,1)} 25% {transform: translate(495.747498px,274.483871px) scale(1,2.450407)} 50% {transform: translate(495.747498px,274.483871px) scale(1,0.868005)} 75% {transform: translate(495.747498px,274.483871px) scale(1,2.866018)} 100% {transform: translate(495.747498px,274.483871px) scale(1,0.868005)}} #eWcdClYftyr59 {animation: eWcdClYftyr59_c_o 4000ms linear infinite normal forwards}@keyframes eWcdClYftyr59_c_o { 0% {opacity: 0} 25% {opacity: 1} 100% {opacity: 1}} #eWcdClYftyr92 {animation: eWcdClYftyr92_c_o 4000ms linear infinite normal forwards}@keyframes eWcdClYftyr92_c_o { 0% {opacity: 0} 50% {opacity: 0} 75% {opacity: 1} 100% {opacity: 1}} #eWcdClYftyr93 {animation: eWcdClYftyr93_c_o 4000ms linear infinite normal forwards}@keyframes eWcdClYftyr93_c_o { 0% {opacity: 0} 50% {opacity: 0} 75% {opacity: 1} 100% {opacity: 1}} #eWcdClYftyr94 {animation: eWcdClYftyr94_c_o 4000ms linear infinite normal forwards}@keyframes eWcdClYftyr94_c_o { 0% {opacity: 0} 50% {opacity: 0} 75% {opacity: 1} 100% {opacity: 1}} #eWcdClYftyr95 {animation: eWcdClYftyr95_c_o 4000ms linear infinite normal forwards}@keyframes eWcdClYftyr95_c_o { 0% {opacity: 0} 50% {opacity: 0} 75% {opacity: 1} 100% {opacity: 1}} #eWcdClYftyr96 {animation: eWcdClYftyr96_c_o 4000ms linear infinite normal forwards}@keyframes eWcdClYftyr96_c_o { 0% {opacity: 0} 50% {opacity: 0} 75% {opacity: 1} 100% {opacity: 1}} #eWcdClYftyr97 {animation: eWcdClYftyr97_c_o 4000ms linear infinite normal forwards}@keyframes eWcdClYftyr97_c_o { 0% {opacity: 0} 50% {opacity: 0} 75% {opacity: 1} 100% {opacity: 1}} #eWcdClYftyr98 {animation: eWcdClYftyr98_c_o 4000ms linear infinite normal forwards}@keyframes eWcdClYftyr98_c_o { 0% {opacity: 0} 50% {opacity: 0} 75% {opacity: 1} 100% {opacity: 1}} #eWcdClYftyr99 {animation: eWcdClYftyr99_c_o 4000ms linear infinite normal forwards}@keyframes eWcdClYftyr99_c_o { 0% {opacity: 0} 50% {opacity: 0} 75% {opacity: 1} 100% {opacity: 1}} #eWcdClYftyr100 {animation: eWcdClYftyr100_c_o 4000ms linear infinite normal forwards}@keyframes eWcdClYftyr100_c_o { 0% {opacity: 0} 25% {opacity: 1} 100% {opacity: 1}} #eWcdClYftyr101 {animation: eWcdClYftyr101_c_o 4000ms linear infinite normal forwards}@keyframes eWcdClYftyr101_c_o { 0% {opacity: 0} 25% {opacity: 0} 50% {opacity: 1} 100% {opacity: 1}} #eWcdClYftyr102 {animation: eWcdClYftyr102_c_o 4000ms linear infinite normal forwards}@keyframes eWcdClYftyr102_c_o { 0% {opacity: 0} 75% {opacity: 0} 100% {opacity: 1}} #eWcdClYftyr103 {animation: eWcdClYftyr103_c_o 4000ms linear infinite normal forwards}@keyframes eWcdClYftyr103_c_o { 0% {opacity: 0} 50% {opacity: 0} 75% {opacity: 1} 100% {opacity: 1}} #eWcdClYftyr104_to {animation: eWcdClYftyr104_to__to 4000ms linear infinite normal forwards}@keyframes eWcdClYftyr104_to__to { 0% {offset-distance: 0%} 25% {offset-distance: 26.824157%} 37.5% {offset-distance: 40.151873%} 50% {offset-distance: 57.448424%} 75% {offset-distance: 88.733657%} 87.5% {offset-distance: 100%} 100% {offset-distance: 100%}} #eWcdClYftyr104_tr {animation: eWcdClYftyr104_tr__tr 4000ms linear infinite normal forwards}@keyframes eWcdClYftyr104_tr__tr { 0% {transform: rotate(0deg)} 25% {transform: rotate(-9.910472deg)} 37.5% {transform: rotate(11.297305deg)} 50% {transform: rotate(60.031933deg)} 75% {transform: rotate(-29.581055deg)} 100% {transform: rotate(-29.581055deg)}} #eWcdClYftyr113_tr {animation: eWcdClYftyr113_tr__tr 4000ms linear infinite normal forwards}@keyframes eWcdClYftyr113_tr__tr { 0% {transform: translate(267.059479px,154.275002px) rotate(-17.009114deg)} 25% {transform: translate(267.059479px,154.275002px) rotate(3.183474deg)} 50% {transform: translate(267.059479px,154.275002px) rotate(-17.311882deg)} 75% {transform: translate(267.059479px,154.275002px) rotate(13.780283deg)} 100% {transform: translate(267.059479px,154.275002px) rotate(-16.134724deg)}} #eWcdClYftyr172 {animation: eWcdClYftyr172_c_o 4000ms linear infinite normal forwards}@keyframes eWcdClYftyr172_c_o { 0% {opacity: 0} 50% {opacity: 0} 75% {opacity: 1} 100% {opacity: 1}} #eWcdClYftyr173 {animation: eWcdClYftyr173_c_o 4000ms linear infinite normal forwards}@keyframes eWcdClYftyr173_c_o { 0% {opacity: 0} 50% {opacity: 0} 75% {opacity: 1} 100% {opacity: 1}} #eWcdClYftyr199_to {animation: eWcdClYftyr199_to__to 4000ms linear infinite normal forwards}@keyframes eWcdClYftyr199_to__to { 0% {offset-distance: 0%} 25% {offset-distance: 15.151879%} 50% {offset-distance: 39.744486%} 62.5% {offset-distance: 58.847139%} 75% {offset-distance: 70.279067%} 100% {offset-distance: 100%}} #eWcdClYftyr199_tr {animation: eWcdClYftyr199_tr__tr 4000ms linear infinite normal forwards}@keyframes eWcdClYftyr199_tr__tr { 0% {transform: rotate(0deg)} 25% {transform: rotate(77.363195deg)} 50% {transform: rotate(56.735267deg)} 62.5% {transform: rotate(17.885113deg)} 75% {transform: rotate(-5.757822deg)} 100% {transform: rotate(-5.757822deg)}} #eWcdClYftyr203_to {animation: eWcdClYftyr203_to__to 4000ms linear infinite normal forwards}@keyframes eWcdClYftyr203_to__to { 0% {offset-distance: 0%} 25% {offset-distance: 32.850645%} 50% {offset-distance: 71.128198%} 75% {offset-distance: 100%} 100% {offset-distance: 100%}} #eWcdClYftyr203_tr {animation: eWcdClYftyr203_tr__tr 4000ms linear infinite normal forwards}@keyframes eWcdClYftyr203_tr__tr { 0% {transform: rotate(0deg)} 25% {transform: rotate(30.789073deg)} 100% {transform: rotate(30.789073deg)}} #eWcdClYftyr207_ts {animation: eWcdClYftyr207_ts__ts 4000ms linear infinite normal forwards}@keyframes eWcdClYftyr207_ts__ts { 0% {transform: translate(347.264496px,94.715847px) scale(1,2.237766)} 27.5% {transform: translate(347.264496px,94.715847px) scale(1,0.909038)} 75% {transform: translate(347.264496px,94.715847px) scale(1,3.060317)} 100% {transform: translate(347.264496px,94.715847px) scale(1,1.098857)}} #eWcdClYftyr208_to {animation: eWcdClYftyr208_to__to 4000ms linear infinite normal forwards}@keyframes eWcdClYftyr208_to__to { 0% {offset-distance: 0%} 12.5% {offset-distance: 9.550428%} 25% {offset-distance: 36.772672%} 37.5% {offset-distance: 54.024218%} 50% {offset-distance: 68.16217%} 100% {offset-distance: 100%}} #eWcdClYftyr208_tr {animation: eWcdClYftyr208_tr__tr 4000ms linear infinite normal forwards}@keyframes eWcdClYftyr208_tr__tr { 0% {transform: rotate(-9.138668deg)} 12.5% {transform: rotate(8.096123deg)} 25% {transform: rotate(-21.111469deg)} 37.5% {transform: rotate(-66.329843deg)} 50% {transform: rotate(-95.727179deg)} 100% {transform: rotate(-95.727179deg)}}
]]></style>
<path id="eWcdClYftyr2" d="M688.188,185.705h-79.012c-6.304,0-11.456,5.148-11.456,11.447v34.628c0,5.787,4.736,10.519,10.528,10.519h2.016l-3.808,16.051l23.905-16.051h58.499c6.304,0,11.457-5.148,11.457-11.447v-33.029c0-6.682-5.473-12.118-12.129-12.118Z" opacity="0" fill="#88eefb"/><g transform="translate(0 0.000001)"><path id="eWcdClYftyr4" d="M690.3,214.456h-82.372c-1.12,0-2.048-.927-2.048-2.046s.928-2.046,2.048-2.046h82.372c1.12,0,2.049.927,2.049,2.046s-.929,2.046-2.049,2.046Z" opacity="0" fill="#fff"/><path id="eWcdClYftyr5" d="M690.3,223.569h-82.372c-1.12,0-2.048-.928-2.048-2.047s.928-2.046,2.048-2.046h82.372c1.12,0,2.049.927,2.049,2.046c0,1.151-.929,2.047-2.049,2.047Z" opacity="0" fill="#fff"/><path id="eWcdClYftyr6" d="M690.3,232.713h-82.372c-1.12,0-2.048-.927-2.048-2.046s.928-2.047,2.048-2.047h82.372c1.12,0,2.049.928,2.049,2.047s-.929,2.046-2.049,2.046Z" opacity="0" fill="#fff"/><path id="eWcdClYftyr7" d="M645.434,200.292h-34.978c-1.344,0-2.432-1.087-2.432-2.43s1.088-2.43,2.432-2.43h34.978c1.344,0,2.432,1.087,2.432,2.43-.032,1.343-1.12,2.43-2.432,2.43Z" opacity="0" fill="#fff"/><path id="eWcdClYftyr8" d="M675.483,200.292h-21.057c-1.056,0-1.92-.863-1.92-1.919v-1.023c0-1.055.864-1.918,1.92-1.918h21.057c1.057,0,1.921.863,1.921,1.918v1.023c0,1.056-.864,1.919-1.921,1.919Z" opacity="0" fill="#fff"/><g id="eWcdClYftyr9_tr" transform="translate(584.691406,295.704026) rotate(0)"><g transform="translate(-584.691406,-295.704025)"><path d="M608.696,278.813l-37.377-3.965c-1.088-.128-2.113.512-2.497,1.535L555.446,311.49c-.576,1.535.512,3.198,2.144,3.262l37.09,1.503c.992.032,1.92-.544,2.336-1.471L610.68,282.17c.609-1.534-.384-3.197-1.984-3.357Z" fill="#233862"/><path d="M611.928,279.133l-37.378-3.965c-1.088-.128-2.112.512-2.496,1.535L558.678,311.81c-.576,1.535.512,3.198,2.144,3.262l37.089,1.503c.992.032,1.92-.544,2.336-1.471l13.665-32.614c.608-1.502-.384-3.197-1.984-3.357Z" fill="#2b478b"/><path d="M591.222,295.536c.449-1.247-.192-2.27-1.44-2.27s-2.656,1.023-3.104,2.27.192,2.27,1.44,2.27s2.656-1.023,3.104-2.27Z" fill="#ebf3fa"/><path d="M610.808,282.458c.224-.607-.096-1.119-.704-1.119s-1.312.512-1.536,1.119c-.224.608.096,1.119.704,1.119.64,0,1.312-.511,1.536-1.119Z" fill="#ebf3fa"/></g></g></g><path d="M278.12,395.213h109.83c3.456,0,6.24-2.781,6.24-6.234v-33.765c0-3.453-2.784-6.235-6.24-6.235h-109.83c-3.456,0-6.24,2.782-6.24,6.235v33.765c.032,3.421,2.816,6.234,6.24,6.234Z" fill="#fff"/><path d="M453.169,23.3093v404.3737c0,9.976-8.096,18.034-18.081,18.034h-226.571c-9.984,0-18.08-8.09-18.08-18.034v-404.3737c0-9.9759,8.096-18.06528,18.08-18.06528h226.571c10.017.03197,18.081,8.08938,18.081,18.06528Z" fill="#c0d8fb"/><g id="eWcdClYftyr16" transform="translate(.000001 0.000001)" opacity="0"><path d="M249.735,328.276h110.534c3.232,0,5.856-2.622,5.856-5.851v-29.256c0-3.23-2.624-5.852-5.856-5.852h-110.534c-3.232,0-5.856,2.622-5.856,5.852v29.224c0,3.261,2.624,5.883,5.856,5.883Z" fill="#fce29e"/><path d="M378.701,308.772c0,7.641,3.232,14.516,8.384,19.376c4.768,4.476,11.169,7.226,18.241,7.226.576,0,1.152-.032,1.696-.064c6.656-.416,12.673-3.293,17.121-7.738.576-.575,1.152-1.183,1.664-1.822.832-.991,1.6-2.047,2.272-3.166c2.464-4.028,3.872-8.76,3.872-13.812c0-7.354-2.976-14.005-7.808-18.801s-11.457-7.802-18.817-7.802-14.017,2.974-18.817,7.802-7.808,11.479-7.808,18.801Z" fill="#fff"/><path d="M389.869,320.826c.48.319.992.607,1.568.799c4.16,3.613,10.753,9.432,15.585,13.685c6.656-.416,12.673-3.293,17.121-7.738.576-.575,1.152-1.183,1.664-1.822.832-.992,1.6-2.047,2.272-3.166-.576-1.023-1.248-2.046-2.08-3.069-4.288-5.532-7.776-7.418-6.816-14.548.512-3.869-1.985-17.586-10.881-18.289-.736-.064-5.248-.832-8.512.095-7.905,2.143-19.009,27.786-9.921,34.053Z" fill="#233862"/><path d="M399.086,319.291c-.032,0,3.713,2.271,6.657,1.663c2.784-.575,5.632-4.348,5.568-4.348-1.152-.288-2.208-1.599-1.728-8.442l-.544.064-8.929,1.183c0,0,.032,2.782-.128,5.404-.096,2.206-.384,4.285-.896,4.476Z" fill="#ffb27d"/><path d="M400.142,309.444c0,0,.032,2.781-.128,5.403c4.928.16,7.84-4.156,9.056-6.587l-8.928,1.184Z" fill="#ed975d"/><path d="M398.35,311.809c0,0,11.649.928,12.129-6.33.48-7.259,2.272-12.023-5.153-12.95-7.424-.895-9.056,1.791-9.792,4.157-.736,2.398-.224,14.676,2.816,15.123Z" fill="#ffb27d"/><path d="M396.782,292.913c0,0,5.888,7.802,10.72,9.369c4.832,1.566,7.04.383,7.04.383s-2.4-3.037-3.296-7.322c-.256-1.247-1.184-2.27-2.432-2.654-3.424-1.023-10.08-2.622-12.032.224Z" fill="#233862"/><path d="M401.422,293.36c0,0-2.944,1.823-4.064,3.39-1.088,1.502-2.176,5.499-1.952,7.194c0,0-2.176-8.154.736-11.255c3.072-3.293,5.28.671,5.28.671Z" fill="#233862"/><path d="M387.085,328.148c4.769,4.476,11.169,7.226,18.241,7.226h1.76c-.032-.032-.032-.032-.064-.064c6.657-.415,12.673-3.293,17.121-7.737.576-.576,1.152-1.184,1.664-1.823-.928-2.014-1.824-3.645-2.56-4.7-3.296-4.604-12.832-5.18-12.832-5.18-.032,0-.032.032-.064.032-3.617,2.142-6.017,2.814-7.585,2.814-2.304,0-2.848-1.471-2.944-1.823c0-.064,0-.064,0-.064s-6.88,1.151-9.952,4.029c-.64.607-1.12,1.279-1.312,2.014-.257.928-.801,2.846-1.473,5.276Z" fill="#fce29e"/><path d="M272.937,307.781h-19.937v2.59h19.937v-2.59Z" fill="#fff"/><path d="M277.865,312.961h-24.866v2.59h24.866v-2.59Z" fill="#fff"/><path d="M298.154,312.961h-18.305v2.59h18.305v-2.59Z" fill="#fff"/><path d="M271.304,318.012h-18.305v2.59h18.305v-2.59Z" fill="#fff"/><path d="M288.394,307.781h-13.313v2.59h13.313v-2.59Z" fill="#fff"/><path d="M318.155,307.781h-26.914v2.59h26.914v-2.59Z" fill="#fff"/><path d="M281.451,294.991h-28.258v3.645h28.258v-3.645Z" fill="#fff"/><path d="M323.595,294.991h-39.042v3.645h39.042v-3.645Z" fill="#fff"/></g><path d="M448.593,5.27588h-254.253v169.33412h254.253v-169.33412Z" fill="#f0f6ff"/><path d="M353.901,27.274h-64.099c-9.504,0-17.185-7.6737-17.185-17.17h98.469c-.032,9.4963-7.712,17.17-17.185,17.17Z" fill="#2b478b"/><path d="M435.568,450.577h-227.499c-12.257,0-22.209-10.488-22.209-23.373v-403.4153c0-12.8855,9.952-23.372929,22.209-23.372929h227.499c12.257,0,22.209,10.487429,22.209,23.372929v403.4153c0,12.885-9.952,23.373-22.209,23.373ZM208.069,10.1039c-7.168,0-12.993,6.139-12.993,13.6848v403.4153c0,7.545,5.825,13.684,12.993,13.684h227.499c7.168,0,12.993-6.139,12.993-13.684v-403.4153c0-7.5458-5.825-13.6848-12.993-13.6848h-227.499Z" fill="#2b478b"/><path d="M434.385,445.588h-232.172c-6.624,0-12.032-5.371-12.032-11.99v-16.275h263.277v9.209c0,10.519-8.545,19.056-19.073,19.056Z" fill="#2b478b"/><path d="M474.771,226.344c9.92-2.11,20.257.895,27.617,7.866c3.232,3.069,6.785,6.938,10.049,11.51c8.096,11.287-7.393,22.478-5.345,26.283c2.048,3.837,6.849,6.842,4.737,14.836-2.081,7.993-15.873,18.353-20.353,18.8-45.539,4.669-65.284-20.399-50.083-33.924s9.024-33.125,21.377-40.735c3.84-2.366,8.033-3.773,12.001-4.636Z" fill="#233862"/><path d="M497.939,296.271c0,0,42.882,18.673,50.659,18.321c7.776-.352,55.747-14.58,55.747-14.58l-1.217,8.249c0,0-37.025,21.263-49.954,22.478-12.737,1.183-56.291-11.415-60.515-14.101s-6.944-17.681,5.28-20.367Z" fill="#fdb888"/><path d="M503.123,316.671c-3.776,2.621-8.48,4.764-14.4,6.138-22.209,5.116-30.722-13.62-33.922-26.506c3.04-1.726,5.888-2.11,7.52-2.302c1.6-.192,3.297-.32,4.705-.384c2.496-1.918,6.208-9.72,7.04-21.87l1.056.288l17.505,4.796c0,0-.8,5.563-1.184,10.807-.288,4.125-.352,8.058.416,9.017c1.376.288,2.176.479,2.176.479s0,0,0,.032c.224.352,5.312,8.697,9.088,19.505Z" fill="#ffb27d"/><path d="M492.595,276.799c0,0-.8,5.563-1.184,10.807-9.921-.991-14.529-10.424-16.321-15.603l17.505,4.796Z" fill="#ed985f"/><path d="M495.571,282.011c0,0-23.554-1.311-22.529-15.923c1.024-14.644-1.313-24.652,13.76-24.46c15.073.224,17.601,6.011,18.433,10.967.864,4.956-3.52,29.384-9.664,29.416Z" fill="#ffb27d"/><path d="M505.172,244.409c-3.329-4.668-6.145-3.9-7.777-2.685-12.352-7.994-21.377,1.854-21.377,1.854-2.336,10.392-10.336,15.859-10.336,15.859s4.16,3.325,14.176,1.119c12.769-2.845,17.153-13.908,17.761-15.603c1.344,1.407,3.072,2.27,4.416,5.308c1.569,3.581,2.561,5.659,2.593,11.542-.032,0,5.504-10.391.544-17.394Z" fill="#233862"/><path d="M448.081,364.503c-2.112-10.871-9.057-54.259-2.112-68.232c2.496-5.02,12.256-5.468,22.977-5.02c3.328,2.142,16.033,10.296,21.281,9.273.064,0,.16-.032.288-.064c2.464-.608,3.392-2.335,1.344-3.837c0,0,5.312-.512,11.904.735c3.713.704,13.761,5.883,13.761,5.883s-5.056,9.145-12.513,12.278c1.281,11.351-.608,16.339-12.384,42.526-9.953,22.126,1.344,42.077,1.344,42.077s-58.563,47.034-58.883,23.085c-.256-18.033,15.713-44.827,12.993-58.704Z" fill="#fff"/><path d="M496.851,451.249c3.2-.352,6.048-2.111,7.84-4.765.288-.415.576-.863.896-1.374c6.657-10.072,9.249-40.959,24.257-73.86c3.649-7.994,16.769-9.432,20.321-18.513c0,0,8.801-29.352-16.832-30.215-25.634-.864-68.644,81.629-69.348,90.294-.64,8.441-16.929,44.06,32.866,38.433Z" fill="#fdcd51"/><path d="M598.744,450.577h-36.482c0,0-1.376-5.819,1.024-9.784c2.112-3.485,1.312-5.5-.256-8.377c1.664.671,3.777,1.279,6.145,1.151c1.824-.096,3.744-.927,5.44-1.919c1.568,1.791,8.288,9.401,10.4,10.903c2.369,1.759,12.993,1.119,13.729,8.026Z" fill="#233862"/><path d="M550.999,331.059c2.208,16.466,10.784,68.392,25.921,93.747c4.864,8.185-12.289,12.758-12.385,12.726-2.304-.608-6.144-4.285-7.904-5.851-12.289-11.063-37.218-42.398-37.218-67.497c0-12.246-.224-35.651,8.705-41.598c5.472-3.677,22.017,1.95,22.881,8.473Z" fill="#fdcd51"/><path d="M475.09,450.577c0,0,1.344-1.886,3.712-5.435c2.816-4.253,5.92-12.598,9.665-23.309c3.968-11.255,8.64-25.068,14.528-39.488c1.825-4.445,3.745-8.953,5.793-13.429c3.648-7.994,13.696-6.907,17.28-15.955c0,0,13.953-31.367-11.68-32.262-25.633-.863-74.34,83.932-77.156,92.149-3.072,9.017-18.049,46.362,37.858,37.729Z" fill="#fce29e"/><path d="M571.959,450.577h-36.482c0,0-1.376-5.819,1.024-9.784c2.112-3.485,1.312-5.5-.256-8.377c1.664.671,3.776,1.279,6.144,1.151c1.824-.096,3.744-.927,5.441-1.919c1.568,1.791,8.288,9.401,10.4,10.903c2.368,1.759,12.993,1.119,13.729,8.026Z" fill="#2b478b"/><path d="M488.467,421.833c3.968-11.255,8.64-25.068,14.528-39.488-1.536-10.903-4.832-20.463-10.4-24.3c0,0-13.473,41.726-4.128,63.788Z" fill="#ffdb7d"/><path d="M529.717,329.908c2.208,16.466,5.28,69.575,20.417,94.898c4.864,8.185-12.289,12.758-12.385,12.726-2.304-.608-6.144-4.285-7.904-5.851-12.289-11.063-37.218-42.398-37.218-67.497c0-12.246,14.401-34.66,23.297-40.607c5.473-3.677,12.897-.224,13.793,6.331Z" fill="#fce29e"/><path d="M454.801,296.271c0,0,51.779,19.056,59.555,18.673c5.024-.256,46.85-14.932,46.85-14.932l3.745,7.098c0,0-40.674,26.123-51.875,25.995-22.081-.256-59.363-13.813-63.555-16.467s-6.944-17.681,5.28-20.367Z" fill="#ffb27d"/><path d="M561.206,300.012c0,0,3.744-5.755,7.488-5.947c3.745-.16,10.177,2.558,12.385,2.973c2.208.416,8.48,2.462,6.624,5.532-1.856,3.069-10.528,3.741-14.272,3.069-3.744-.671-8.481,1.503-8.481,1.503l-3.744-7.13Z" fill="#ffb27d"/><path d="M567.671,294.257c0,0,5.952-2.718,7.648-3.23c1.696-.511,1.344,0,.864,1.631-.512,1.599-3.552,3.133-3.552,3.645s-4.96-2.046-4.96-2.046Z" fill="#ffb27d"/><path d="M608.088,296.943c0,0-3.744-5.916-4.96-6.171-3.744-.736-3.744,4.188-2.944,7.354.864,3.389,3.744,6.618,4.512,6.33.8-.255,4.257-4.38,3.392-7.513Z" fill="#ffb27d"/><path d="M608.217,298.126c0,0,1.184,6.65-5.121,10.103l1.857-4.572l3.264-5.531Z" fill="#ffb27d"/><g id="eWcdClYftyr57_ts" transform="translate(495.747498,274.483871) scale(1,1)"><path d="M499.988,273.601c0,0-2.24-.895-8.481-.383c0,0,.32,2.43,4.96,2.685c2.593.128,3.521-2.302,3.521-2.302Z" transform="translate(-495.747498,-274.483871)" fill="#fff"/></g><path d="M481.459,305.671c0,0-4.641,14.644-20.545,17.97c0,0-26.274-8.09-13.185-25.963c0,0,12.961-9.592,33.73,7.993Z" fill="#fff"/><g id="eWcdClYftyr59" transform="translate(.000001 0)" opacity="0"><path d="M144.425,273.281h218.347c6.496,0,11.776-5.275,11.776-11.766v-59.983c0-6.491-5.28-11.766-11.776-11.766h-218.347c-6.496,0-11.777,5.275-11.777,11.766v59.983c0,6.491,5.281,11.766,11.777,11.766Z" fill="#fff"/><path d="M259.984,225.705h-30.338v3.933h30.338v-3.933Z" transform="translate(0-.519507)" fill="#cbe1fd"/><path d="M267.471,233.57h-37.826v3.933h37.826v-3.933Z" fill="#cbe1fd"/><path d="M298.321,233.57h-27.842v3.933h27.842v-3.933Z" fill="#cbe1fd"/><path d="M257.486,241.244h-27.841v3.933h27.841v-3.933Z" fill="#cbe1fd"/><path d="M283.472,225.705h-20.225v3.932h20.225v-3.932Z" transform="translate(0-.519507)" fill="#cbe1fd"/><path d="M328.722,225.705h-40.898v3.932h40.898v-3.932Z" transform="translate(0-.519507)" fill="#cbe1fd"/><path d="M272.88,206.233h-42.946v5.563h42.946v-5.563Z" transform="translate(0-1.234)" fill="#cbe1fd"/><path d="M337.011,206.232h-59.363v5.564h59.363v-5.564Z" transform="translate(0-1.234)" fill="#cbe1fd"/><circle r="30" transform="translate(175 219.766)" fill="#cbe1fd"/><g transform="translate(0-1.234)" mask="url(#eWcdClYftyr90)"><g><path d="M169.793,253.111c0,0-1.687,1.716-3.374,3.644-.723.783-1.416,1.626-2.018,2.379-2.019,2.53-3.917,3.253-6.146,5.723-1.386,1.536-3.193,2.71-6.567,3.253-3.374.542-15.725,1.415-15.725,1.415s-.301-1.626-.09-2.168c.06-.151-.091-.452-.302-.874-.542-1.084-1.446-2.741.302-2.951c2.379-.271,13.977-3.072,14.52-3.916.542-.843,3.675-4.728,5.362-8.252s4.217-7.831,6.808-12.048c2.259-3.704,2.922-3.885,4.127-4.969l1.416,8.614l1.687,10.15Z" fill="#6d9bff"/><path d="M190.099,219.527c0,0-.844,2.47-.934,4.609-.091,2.138-.091,5.09.542,6.234.633,1.145,7.23,5,7.23,5s-7.501,1.566-14.912,1.114c-7.41-.452-9.007-3.584-9.007-3.584s5.633-2.199,5.784-2.771c.15-.572,1.235-4.819,1.235-4.819l10.062-5.783Z" fill="#f6c1aa"/><path d="M189.556,229.979c-.452-1.326-.452-3.916-.392-5.843.091-2.139.934-4.609.934-4.609l-10.031,5.723c0,0-1.085,4.277-1.235,4.819-.151.572-5.784,2.771-5.784,2.771s.06.12.211.301c5.452-.904,10.875-2.018,16.297-3.162Z" opacity="0.28" fill="#eb9271"/><path d="M177.025,219.016c.241-1.777.301-8.253.301-8.253l8.646-3.042l7.561,4.217c0,0-1.807,5.722-1.837,7.529s-.151,4.217-1.296,5.934c-1.114,1.716-4.066,4.397-4.759,4.728-2.079.964-3.435.301-5.001-.602-.663-.392-1.567-2.349-2.44-4.217-.904-1.867-1.416-4.517-1.175-6.294Z" fill="#fdd2bb"/><path d="M190.581,214.528c0,0,.03,2.319.632,3.825.121.301.03,1.205-.09,2.289.301-.361.633-.693.934-1.024.632-.662,1.205-1.325,1.747-2.018.331-1.325.904-3.102.874-4.126-.061-3.102-.061-4.819-5.724-7.59-1.084-.512-3.284-1.958-4.398-1.536-1.687.633-2.169,1.235-3.495,2.349c0,0-1.777-.361-4.006,2.048-1.296,1.416-.904,3.464-.844,5c.151,3.132.994,2.952.994,2.952.121-1.597.734-1.531,1.216-3.94.15-.814.369-1.032,1.212-1.213.783-.18,1.157-1.263,3.778,1.358c1.567,1.566,2.41,1.445,7.17,1.626Z" fill="#5c3000"/><path d="M190.792,219.408c.422-1.566,1.085-2.711,1.808-2.681.693.061,1.415,1.356.542,2.831-.874,1.476-1.446,2.38-1.928,2.952-.482.632-.693-2.108-.422-3.102Z" fill="#fdd2bb"/><path d="M191.213,219.588c.241-.843.632-1.897,1.265-1.837.632.06.723.753-.151,1.958-.873,1.174-1.054,1.807-1.054,1.807s-.181-1.446-.06-1.928Z" fill="#eb9271"/><path d="M183.652,251.243c-.934,5.481-1.356,18.944-3.675,17.92-1.266-.572-5.182-.542-8.496-.422-2.711.121-4.97.302-4.97.302s-.151-6.084-.091-12.289c.031-2.982.091-5.963.272-8.343.06-.783.09-1.536.12-2.258.211-6.958-.934-10.994-.12-11.777.903-.873,11.417-3.524,11.929-4.789l.783,3.705c1.928,3.072,4.428,2.138,4.428,2.138s.754,10.331-.18,15.813Z" fill="#6d9bff"/><path d="M181.181,236.454c-.512,3.042-.632,5.422-1.506,11.265s-.452,8.252-.844,11.927c-.391,3.674-1.114,9.125-1.114,9.125l6.296.934c0,0,.211-10.541.542-17.95.331-7.41,1.567-14.006,1.567-14.006l.843-4.517c0,0-2.32,2.469-4.73,2.228-2.44-.301-1.054.994-1.054.994Z" fill="#2c5cff"/><path d="M200.009,240.821c-.241,2.259.813,5.06.331,8.223-.331,2.108-.753,4.668-1.205,7.228-.632,3.644-.271,12.861-.271,12.861s-14.369-.512-16.809.18c-2.41.663-.904-12.71-1.055-18.282-.15-5.571,2.109-15.631,2.109-15.631s1.868,0,4.73-2.229c1.777-1.355,2.078-3.162,2.078-3.162.332,1.295,10.122,4.246,10.905,5.271.121.15.211.451.272.843.09.994-.874,2.59-1.085,4.698Z" fill="#6d9bff"/><path d="M183.079,235.4c.874-.241,3.796-1.867,4.88-3.313c1.085-1.446,1.386-3.072,1.386-3.072s1.024,1.656,1.145,2.711c.12,1.054-2.35,6.174-2.802,7.589c0,0-.783-.15-2.229-1.385s-2.38-2.53-2.38-2.53Z" fill="#2c5cff"/><path d="M178.983,229.437c0,0-.482.722.603,2.499c1.084,1.777,3.464,3.494,3.464,3.494l-3.856,3.735c0,0-.904-2.229-1.446-4.156-.542-1.928-.452-3.976-.181-4.578.301-.573,1.416-.994,1.416-.994Z" fill="#2c5cff"/><path d="M184.223,243.683c-.03.572-.512.964-1.084.934-.572-.031-.964-.512-.934-1.085.03-.572.512-.964,1.085-.933.572.03.994.512.933,1.084Z" fill="#2c5cff"/><path d="M183.441,254.526c-.03.572-.512.964-1.085.934-.572-.031-.964-.513-.934-1.085s.512-.964,1.085-.933c.572.03.994.512.934,1.084Z" fill="#2c5cff"/><path d="M188.502,247.689c2.5.21,5.241.512,6.296.391v1.596c0,0-2.501-.271-4.7-.271-3.133,0-3.133,0-3.133,0l.271-1.716c0,0-.03-.091,1.266,0Z" fill="#2c5cff"/><path d="M212.631,264.736c0,0-2.802-1.536-5.061-2.56s-5.543.813-5.543.813-.392-1.054-.964-2.379c-.572-1.386-1.295-3.072-1.958-4.307-.362-.723-.693-1.265-.964-1.536-1.145-1.205-1.024-2.621-1.356-3.313c0-.03-.03-.061-.03-.091-.241-.903.392-4.578,1.085-7.921.723-3.463,1.687-8.855,1.687-8.855.331.302,1.476.573,2.078,1.295c0,0,4.097,6.205,5.814,10.482c3.133,7.77,3.645,9.367,4.158,12.228.572,2.831,1.054,6.144,1.054,6.144Z" fill="#6d9bff"/><path d="M203.926,258.712c0,0-2.26,1.747-5.393,2.711-3.434,1.054-5.543,1.385-5.543,1.385s.241,2.832.332,5.783c0,0,7.531,1.175,12.441.241c4.911-.964,6.146-.783,6.959-2.921.813-2.139-.542-6.325-1.175-8.162-.632-1.868-4.579-.422-7.621.963Z" fill="#6d9bff"/><path d="M192.086,262.779c.813,1.084.783,2.71.994,4.969.151,1.566-.392,1.536-.392,1.536l4.127-.12c0,0,.452-2.38-.18-4.578-.663-2.199-.663-2.199-.663-2.199l-3.886.392Z" fill="#2c5cff"/></g><mask id="eWcdClYftyr90" mask-type="alpha" x="-150%" y="-150%" height="400%" width="400%"><path d="M215.399,232.182c0,5.993-1.676,11.6-4.577,16.369-.806,1.321-1.708,2.577-2.675,3.737-.613.742-1.29,1.483-1.966,2.159-1.676,1.676-3.514,3.158-5.544,4.415-4.319,2.707-9.347,4.414-14.73,4.737-.676.032-1.353.064-2.03.064-6.414,0-12.409-1.933-17.373-5.22-1.514-.999-2.9-2.094-4.222-3.319-2.385-2.223-4.415-4.833-5.995-7.701-2.514-4.511-3.932-9.731-3.932-15.274c0-8.7,3.513-16.594,9.25-22.297c5.705-5.704,13.57-9.216,22.304-9.216c8.702,0,16.599,3.512,22.304,9.216c5.672,5.767,9.186,13.63,9.186,22.33Z" fill="#dfebfd"/></mask></g></g><path id="eWcdClYftyr92" d="M301.289,370.226h-19.936v2.59h19.936v-2.59Z" opacity="0" fill="#fff"/><path id="eWcdClYftyr93" d="M306.218,375.374h-24.865v2.589h24.865v-2.589Z" opacity="0" fill="#fff"/><path id="eWcdClYftyr94" d="M326.507,375.374h-18.305v2.589h18.305v-2.589Z" opacity="0" fill="#fff"/><path id="eWcdClYftyr95" d="M299.658,380.425h-18.305v2.59h18.305v-2.59Z" opacity="0" fill="#fff"/><path id="eWcdClYftyr96" d="M316.747,370.225h-13.313v2.59h13.313v-2.59Z" opacity="0" fill="#fff"/><path id="eWcdClYftyr97" d="M346.508,370.225h-26.913v2.59h26.913v-2.59Z" opacity="0" fill="#fff"/><path id="eWcdClYftyr98" d="M309.804,357.404h-28.257v3.645h28.257v-3.645Z" opacity="0" fill="#fff"/><path id="eWcdClYftyr99" d="M351.948,357.404h-39.042v3.645h39.042v-3.645Z" opacity="0" fill="#fff"/><path id="eWcdClYftyr100" d="M425.616,34.1166l-2.624,1.8865-2.624-1.8545c.576-.8314,1.536-1.3749,2.624-1.3749c1.056,0,2.016.5435,2.624,1.3429Z" opacity="0" fill="#2b478b"/><path id="eWcdClYftyr101" d="M422.992,28.2014c-2.624,0-4.96,1.311-6.368,3.2933l1.664,1.1511c1.056-1.4708,2.752-2.43,4.704-2.43c1.921,0,3.617.9592,4.673,2.398l1.664-1.183c-1.44-1.9504-3.744-3.2294-6.337-3.2294Z" opacity="0" fill="#2b478b"/><path id="eWcdClYftyr102" d="M422.992,19.5361c-5.568,0-10.465,2.7498-13.473,6.9703l1.664,1.1511c2.625-3.709,6.945-6.107,11.809-6.107c4.832,0,9.12,2.398,11.745,6.043l1.632-1.183c-2.977-4.1886-7.873-6.8744-13.377-6.8744Z" opacity="0" fill="#2b478b"/><path id="eWcdClYftyr103" d="M422.992,24.2688c-3.968,0-7.456,1.9504-9.6,4.956l1.664,1.151c1.76-2.462,4.672-4.0926,7.936-4.0926c3.232,0,6.113,1.5986,7.905,4.0287l1.632-1.1831c-2.144-2.9416-5.633-4.86-9.537-4.86Z" opacity="0" fill="#2b478b"/><g id="eWcdClYftyr104_to" style="offset-path:path('M547.664002,169.315995C535.779101,159.608013,510.263857,145.892096,494.082079,143.898452C482.678139,139.37,477.169091,132.520798,470.217954,126.507492C453.296507,115.369739,458.741197,101.163131,464.599148,93.4901C492.787534,55.052156,480.129412,38.059668,465.682,36.0031Q455.076736,36.444968,440.629324,34.3884');offset-rotate:0deg"><g id="eWcdClYftyr104_tr" transform="rotate(0)"><g transform="translate(-547.664001,-169.315994)"><path d="M547.416,173.554L535.87,155.357l14.613,8.941-2.529,1.929l1.286,5.107-1.824,2.22Z" fill="#685ed6"/><path d="M535.87,155.357l15.628,12.427l7.96,15.491-23.588-27.918Z" fill="#18e1f7"/><path d="M550.484,164.299l-14.613-8.941l18.242,3.804-3.629,5.137Z" fill="#18e1f7"/></g></g></g><g clip-path="url(#eWcdClYftyr170)"><g><path d="M412.889,158.61h-182.352v17.385h182.352v-17.385Z" fill="#fff"/><path d="M327.281,134.611c0,0-2.505,2.547-5.009,5.408-1.074,1.161-2.102,2.413-2.997,3.53-2.997,3.754-5.814,4.827-9.124,8.491-2.058,2.28-4.741,4.022-9.751,4.827-5.009.804-23.347,2.1-23.347,2.1s-.447-2.413-.134-3.217c.089-.224-.135-.671-.448-1.296-.805-1.609-2.147-4.067.448-4.38c3.533-.402,20.753-4.559,21.558-5.81s5.457-7.016,7.961-12.245c2.505-5.229,6.262-11.62,10.109-17.876c3.354-5.497,4.338-5.765,6.127-7.374l2.102,12.781l2.505,15.061Z" fill="#6d9bff"/><path d="M268.644,158.431h-12.255v-.536c0-3.352,2.729-6.123,6.128-6.123c3.354,0,6.127,2.726,6.127,6.123v.536Z" fill="#a5a5a5"/><g id="eWcdClYftyr113_tr" transform="translate(267.059479,154.275002) rotate(-17.009114)"><path d="M269.047,151.46c-.984-.358-3.981-1.788-5.591-1.788s-4.293,2.726-5.814,4.067.581,2.592,1.789,1.966c1.252-.625,2.415-2.19,3.578-2.145s1.7,1.073,2.326,1.296c.313.089.492.983-.09,1.386-.626.446-2.012.446-2.37.67-.76.491-.268,1.788,1.029,1.788s2.37.134,3.936-.179c1.52-.313,3.444.134,4.606-.358c1.208-.491,4.563.715,4.563.715l-2.416-6.569c0,.089-3.623-.09-5.546-.849Z" transform="translate(-267.059479,-154.275002)" fill="#fdd2bb"/></g><path d="M269.942,151.46c.268.983.894,1.653,1.386,3.173c1.119,3.262-.313,3.888-.313,3.888s6.262.447,7.38,0c0,0,1.521-1.699,0-5.05-1.52-3.352-1.521-3.352-1.521-3.352s-.939,0-3.712.402c-2.281.313-3.22.939-3.22.939Z" fill="#2c5cff"/><path d="M357.428,84.7811c0,0-1.253,3.6647-1.387,6.8377s-.134,7.5527.805,9.2512c.94,1.698,10.735,7.418,10.735,7.418s-11.137,2.324-22.14,1.654-13.373-5.318-13.373-5.318s8.364-3.263,8.587-4.112c.224-.8489,1.834-7.1503,1.834-7.1503l14.939-8.5806Z" fill="#f6c1aa"/><path d="M356.623,100.289c-.671-1.9666-.671-5.81-.582-8.6702.134-3.173,1.387-6.8377,1.387-6.8377l-14.894,8.4913c0,0-1.611,6.346-1.834,7.1506-.224.849-8.588,4.111-8.588,4.111s.09.179.313.447c8.096-1.34,16.147-2.994,24.198-4.692Z" opacity="0.28" fill="#eb9271"/><path d="M338.017,84.0216c.358-2.6368.448-12.2453.448-12.2453l12.836-4.5137l11.227,6.2567c0,0-2.684,8.4912-2.729,11.1726-.044,2.6815-.223,6.2567-1.923,8.8041-1.655,2.5474-6.038,6.525-7.067,7.016-3.086,1.431-5.099.447-7.424-.8934-.984-.581-2.326-3.4858-3.623-6.2567-1.342-2.7708-2.103-6.7036-1.745-9.3403Z" fill="#fdd2bb"/><path d="M358.144,77.3625c0,0,.045,3.4412.939,5.6757.179.4469.045,1.7876-.134,3.3965.447-.5363.939-1.0279,1.387-1.5195.939-.9832,1.789-1.9664,2.594-2.9943.492-1.9664,1.342-4.6031,1.297-6.1226-.09-4.6031-.09-7.1505-8.498-11.262-1.61-.7598-4.876-2.9049-6.53-2.2793-2.505.9385-3.221,1.8323-5.189,3.4859c0,0-2.639-.5363-5.948,3.039-1.924,2.1004-1.342,5.1394-1.253,7.4186.224,4.6478,1.476,4.3797,1.476,4.3797.179-2.3686-.223-3.3518.492-6.927.224-1.2067,2.013-1.6089,3.265-1.8771c1.163-.2681,1.566-.715,5.457,3.1731c2.326,2.3239,3.578,2.1451,10.645,2.4133Z" fill="#5c3000"/><path d="M358.457,84.6024c.627-2.324,1.611-4.0222,2.684-3.9775c1.029.0894,2.102,2.0111.805,4.2009s-2.147,3.5306-2.862,4.3797c-.716.9385-1.029-3.1284-.627-4.6031Z" fill="#fdd2bb"/><path d="M359.083,84.8704c.358-1.2513.94-2.8155,1.879-2.7261s1.073,1.1173-.224,2.9049c-1.297,1.7429-1.565,2.6814-1.565,2.6814s-.269-2.1451-.09-2.8602Z" fill="#eb9271"/><path d="M347.856,131.84c-1.387,8.134-2.013,28.111-5.457,26.591-1.878-.849-7.693-.804-12.613-.625-4.025.178-7.38.447-7.38.447s-.223-9.028-.134-18.234c.045-4.425.134-8.849.403-12.38.089-1.162.134-2.279.179-3.351.313-10.324-1.387-16.312-.179-17.474c1.341-1.296,16.951-5.229,17.712-7.1062l1.162,5.4972c2.863,4.558,6.575,3.173,6.575,3.173s1.118,15.329-.268,23.462Z" fill="#6d9bff"/><path d="M344.188,109.897c-.76,4.514-.939,8.044-2.236,16.714s-.671,12.246-1.253,17.698c-.581,5.452-1.655,13.541-1.655,13.541l9.348,1.386c0,0,.313-15.642.805-26.636s2.326-20.781,2.326-20.781l1.253-6.704c0,0-3.444,3.665-7.023,3.307-3.622-.447-1.565,1.475-1.565,1.475Z" fill="#2c5cff"/><path d="M372.143,116.377c-.358,3.352,1.208,7.508.492,12.201-.492,3.128-1.118,6.927-1.789,10.726-.939,5.407-.403,19.083-.403,19.083s-21.334-.76-24.957.268c-3.578.983-1.342-18.86-1.566-27.128-.223-8.267,3.131-23.194,3.131-23.194s2.773,0,7.022-3.307c2.639-2.011,3.086-4.693,3.086-4.693.492,1.922,15.029,6.302,16.192,7.821.179.224.313.671.402,1.252.134,1.474-1.297,3.843-1.61,6.971Z" fill="#6d9bff"/><path d="M347.006,108.333c1.297-.358,5.635-2.771,7.245-4.916c1.611-2.145,2.058-4.5585,2.058-4.5585s1.521,2.4585,1.699,4.0225c.179,1.564-3.488,9.161-4.159,11.262c0,0-1.163-.224-3.31-2.056s-3.533-3.754-3.533-3.754Z" fill="#2c5cff"/><path d="M340.923,99.4841c0,0-.715,1.0729.895,3.7089c1.61,2.637,5.143,5.185,5.143,5.185l-5.725,5.541c0,0-1.341-3.307-2.147-6.167-.805-2.86-.67-5.899-.268-6.793.447-.849,2.102-1.4749,2.102-1.4749Z" fill="#2c5cff"/><path d="M348.705,120.623c-.045.849-.76,1.43-1.61,1.385-.85-.044-1.431-.759-1.387-1.609.045-.849.761-1.43,1.611-1.385.849.045,1.476.76,1.386,1.609Z" fill="#2c5cff"/><path d="M347.543,136.712c-.045.849-.761,1.43-1.61,1.385-.85-.045-1.432-.76-1.387-1.609s.76-1.43,1.61-1.385s1.476.76,1.387,1.609Z" fill="#2c5cff"/><path d="M346.379,152.756c-.044.849-.76,1.43-1.61,1.385s-1.431-.76-1.386-1.609c.044-.849.76-1.43,1.61-1.385.85.089,1.476.804,1.386,1.609Z" fill="#2c5cff"/><path d="M355.057,126.567c3.712.312,7.782.759,9.347.581v2.368c0,0-3.712-.402-6.977-.402-4.652,0-4.652,0-4.652,0l.403-2.547c0,0-.045-.135,1.879,0Z" fill="#2c5cff"/><path d="M325.895,156.062h-20.485v2.369h20.485v-2.369Z" fill="#e9ebee"/><path d="M352.239,156.062h-26.389v2.369h26.389v-2.369Z" fill="#e9ebee"/><path d="M327.282,155.034v1.028h1.252h2.415v-1.028h-2.415-1.252Z" fill="#d5d5d7"/><path d="M322.674,155.034v1.028h1.253h2.415v-1.028h-2.415-1.253Z" fill="#d5d5d7"/><path d="M318.067,155.034v1.028h1.253h2.415v-1.028h-2.415-1.253Z" fill="#d5d5d7"/><path d="M313.46,155.034v1.028h1.253h2.415v-1.028h-2.415-1.253Z" fill="#d5d5d7"/><path d="M347.274,155.034h-1.297v1.028h1.297h2.371v-1.028h-2.371Z" fill="#d5d5d7"/><path d="M341.37,155.034v1.028h1.297h2.371v-1.028h-2.371-1.297Z" fill="#d5d5d7"/><path d="M336.763,155.034v1.028h1.297h2.371v-1.028h-2.371-1.297Z" fill="#d5d5d7"/><path d="M332.156,155.034v1.028h1.297h2.371v-1.028h-2.371-1.297Z" fill="#d5d5d7"/><path d="M308.853,155.034v1.028h1.253h2.415v-1.028h-2.415-1.253Z" fill="#d5d5d7"/><path d="M312.029,91.4398h-72.323c-1.163,0-2.058.9385-1.924,2.1452l5.055,48.936c.134,1.162,1.162,2.145,2.37,2.145h72.323c1.163,0,2.058-.938,1.924-2.145L314.4,93.585c-.135-1.2067-1.208-2.1452-2.371-2.1452Z" fill="#fafcff"/><path d="M312.029,91.4398h-72.323c-1.163,0-2.058.9385-1.924,2.1452l5.055,48.936c.134,1.162,1.162,2.145,2.37,2.145h72.323c1.163,0,2.058-.938,1.924-2.145L314.4,93.585c-.135-1.2067-1.208-2.1452-2.371-2.1452Z" fill="#6b6b6b"/><path d="M310.688,91.4401h-72.323c-1.163,0-2.058.9385-1.968,2.1451l4.338,48.9368c.09,1.161,1.163,2.145,2.326,2.145h72.323c1.163,0,2.058-.939,1.968-2.145l-4.338-48.9368c-.09-1.2066-1.163-2.1451-2.326-2.1451Z" fill="#d5d5d7"/><path d="M298.522,140.689c-.447,0-.894-.357-.939-.849l-.358-4.022c-.044-.447.313-.849.761-.849.447,0,.894.357.939.849l.358,4.022c.045.492-.269.849-.761.849Z" fill="#e9ebee"/><path d="M301.206,140.689c-.448,0-.895-.358-.94-.85l-.358-4.022c-.044-.447.314-.849.761-.849s.894.358.939.849l.358,4.022c.045.492-.268.85-.76.85Z" fill="#e9ebee"/><path d="M303.889,140.689c-.447,0-.894-.358-.939-.85l-.358-4.022c-.044-.447.313-.849.761-.849.447,0,.894.358.939.849l.358,4.022c.045.492-.313.85-.761.85Z" fill="#e9ebee"/><path d="M306.573,140.689c-.447,0-.894-.358-.939-.85l-.358-4.022c-.045-.447.313-.849.761-.849.447,0,.894.358.939.849l.358,4.022c.044.492-.313.85-.761.85Z" fill="#e9ebee"/><path d="M309.257,140.689c-.448,0-.895-.358-.94-.85l-.358-4.022c-.044-.447.314-.849.761-.849s.894.358.939.849l.358,4.022c.045.492-.313.85-.76.85Z" fill="#e9ebee"/><path d="M293.736,156.733h-10.064v1.877l10.064.313v-2.19Z" fill="#6b6b6b"/><path d="M279.916,148.242l2.549-30.167h-11.047l-4.786,29.854c-.671,3.441.402,7.106,2.549,8.759l2.46,1.922h13.642l-.224-1.877c-3.98-1.52-5.591-5.184-5.143-8.491Z" fill="#6b6b6b"/><path d="M278.305,148.242l2.55-30.166h-11.048l-4.786,29.853c-.671,3.441.403,7.106,2.55,8.76l2.46,1.921h13.641l-2.728-2.1c-2.013-1.564-3.086-4.961-2.639-8.268Z" fill="#a5a5a5"/><path d="M278.529,152.487h-13.463c.403,1.743,1.297,3.307,2.46,4.201l2.46,1.922h13.642l-2.729-2.101c-1.073-.893-1.923-2.324-2.37-4.022Z" fill="#6b6b6b"/><path d="M390.884,151.862c0,0-4.16-2.279-7.515-3.799-3.354-1.519-8.229,1.207-8.229,1.207s-.582-1.564-1.432-3.531c-.849-2.055-1.923-4.558-2.907-6.39-.537-1.073-1.029-1.877-1.431-2.28-1.7-1.787-1.521-3.888-2.013-4.916c0-.044-.045-.089-.045-.134-.357-1.34.582-6.793,1.611-11.753c1.073-5.14,2.504-13.139,2.504-13.139.492.446,2.192.849,3.086,1.921c0,0,6.083,9.207,8.633,15.553c4.651,11.53,5.412,13.898,6.172,18.144.85,4.201,1.566,9.117,1.566,9.117Z" fill="#6d9bff"/><path d="M338.777,154.231c3.578-.715,6.217,1.028,8.453,1.162c2.237.134,10.243-.715,10.243-.715l-1.789-4.112c0,0-9.125-.179-12.211.849s-4.696,2.816-4.696,2.816Z" fill="#fdd2bb"/><path d="M357.517,149.985c0,0-4.741-.849-7.022-.894-3.846-.089-8.185-.089-9.079.626-.895.715-5.502,5.944-6.128,6.793s-.313,1.832,1.61,1.162s5.099-4.335,7.022-5.184s5.502-.134,5.502-.134l7.111-.671.984-1.698Z" fill="#fdd2bb"/><path d="M351.927,149.182c-5.681,1.385-11.227,3.262-16.013,6.525-.313.357-.536.67-.671.804-.626.849-.313,1.833,1.611,1.162c1.923-.67,5.098-4.335,7.022-5.184c1.923-.849,5.501-.134,5.501-.134l7.112-.67.984-1.699c.044,0-3.131-.536-5.546-.804Z" opacity="0.28" fill="#eb9271"/><path d="M352.777,150.164c0,0-6.62-.447-8.32-.626-1.744-.178-3.086,1.252-4.025,2.95-.984,1.698-2.952,4.648-2.505,5.497.403.894,1.521.804,2.415-.179.94-.983,2.147-3.441,3.444-3.933c1.298-.491,5.681-1.519,5.681-1.519l3.31-2.19Z" fill="#fdd2bb"/><path d="M344.547,151.236c-2.728,1.162-5.143,7.509-4.204,6.57.939-.983,2.147-3.441,3.444-3.933c1.297-.491,5.68-1.519,5.68-1.519l3.355-2.235c0,0-1.655-.134-3.534-.268-1.655.313-3.22.76-4.741,1.385Z" opacity="0.28" fill="#eb9271"/><path d="M364.405,156.063c0,0-3.399-.223-4.607.939-1.207,1.162-2.415,1.698-3.533,1.564-1.163-.134-3.22-1.162-4.16-1.743-.939-.581-3.98,1.385-4.92,1.832-.983.492-1.833-.357-1.386-1.385.492-1.028,1.476-2.011,2.281-2.414.805-.402,4.249-1.251,4.249-1.251h-.045-.044c-.403-.045-1.968-.223-2.997-.179-1.163.09-2.371.805-3.489,2.235-1.073,1.43-2.236,3.039-2.862,3.307-.179.089-.403.045-.582-.179-.402-.402-.581-1.296-.044-2.458.805-1.698,2.862-4.379,3.936-5.72c1.073-1.341,2.683-1.475,4.249-1.52c1.52-.044,5.098-.044,5.098-.044s3.936-.09,6.128-.09c1.342.045,2.728,7.106,2.728,7.106Z" fill="#fdd2bb"/><path d="M361.722,149.002c-.492,0-1.029,0-1.61,0c.044,2.771-.134,5.542-.582,8.268.09-.09.179-.179.313-.268c1.208-1.162,4.607-.939,4.607-.939s-1.431-7.061-2.728-7.061Z" opacity="0.28" fill="#eb9271"/><path d="M352.329,153.56h-.044-.045c-.403-.045-1.968-.223-2.997-.179-1.163.09-2.37.805-3.488,2.235-1.074,1.43-2.237,3.039-2.863,3.307-.179.089-.402.045-.581-.179c1.163-1.43,2.37-3.62,2.952-4.603.894-1.519,3.488-1.787,4.159-1.787.626,0,2.907,1.206,2.907,1.206Z" opacity="0.28" fill="#eb9271"/><path d="M377.957,142.924c0,0-3.354,2.592-8.006,4.022-5.099,1.564-8.23,2.056-8.23,2.056s.358,4.201.492,8.58c0,0,11.182,1.743,18.473.358c7.29-1.43,9.124-1.162,10.332-4.335c1.207-3.173-.805-9.385-1.745-12.111-.939-2.771-6.798-.626-11.316,1.43Z" fill="#6d9bff"/><path d="M360.38,148.957c1.208,1.609,1.163,4.022,1.476,7.374.224,2.324-.581,2.279-.581,2.279l6.127-.178c0,0,.671-3.531-.268-6.793-.984-3.263-.984-3.263-.984-3.263l-5.77.581Z" fill="#2c5cff"/><path d="M397.369,145.068c.134-.894.85-1.698,1.744-1.966.671-.179,1.432-.134,1.924-.626.536-.536.313-1.43.313-2.19c0-1.519.984-2.949,2.415-3.486.626-.223,1.342-.268,1.834-.715.492-.446.671-1.162.849-1.832.492-1.653,1.521-3.084,2.863-4.156.581-.447,1.297-.805,1.968-.626.537.179.939.671,1.073,1.207.135.536.045,1.117-.134,1.653-.715,2.011-2.773,3.442-3.22,5.542-.224,1.028,0,2.145-.224,3.173-.268,1.207-1.118,2.235-2.236,2.726-.537.224-1.208.358-1.566.849-.402.537-.268,1.341-.357,2.011-.179,1.475-1.611,2.592-3.086,2.682-1.476.089-2.908-.805-3.713-2.011-.089.044-.581-1.296-.447-2.235Z" fill="#4bbd6d"/><path d="M404.212,143.638c.536-.67.626-1.609.268-2.368-.268-.537-.805-1.073-.76-1.654.044-.67.76-1.072,1.297-1.564c1.028-.894,1.386-2.503.849-3.754-1.118-2.682,1.298-5.005,1.074-7.866-.045-.625-.224-1.34-.805-1.698-.447-.268-1.029-.223-1.476.045-.447.223-.761.67-1.029,1.117-.76,1.43-.76,2.95-1.252,4.424-.492,1.386-1.655,2.101-2.46,3.263-.626.894-.805,2.145-.447,3.173.178.536.492,1.028.357,1.564-.134.626-.715.983-1.118,1.475-.85,1.028-.76,2.681.09,3.709.849,1.028,2.325,1.475,3.623,1.252.044,0,1.252-.492,1.789-1.118Z" fill="#44ab63"/><path d="M403.496,145.292c-.089-.76-.671-1.475-1.431-1.698-.537-.179-1.208-.134-1.61-.581-.403-.492-.224-1.207-.179-1.833.044-1.251-.761-2.502-1.968-2.949-.537-.179-1.118-.268-1.521-.626-.403-.402-.537-.983-.671-1.519-.402-1.386-1.208-2.637-2.326-3.531-.447-.357-1.073-.715-1.655-.536-.447.134-.805.536-.894.983-.134.447-.045.938.089,1.385.582,1.699,2.281,2.95,2.594,4.693.179.894-.044,1.787.135,2.681.179.984.894,1.877,1.833,2.324.448.224.984.358,1.298.76.313.492.178,1.117.268,1.698.134,1.207,1.297,2.19,2.505,2.279c1.252.09,2.46-.581,3.175-1.608-.044-.045.448-1.162.358-1.922Z" fill="#44ab63"/><path d="M395.803,141.359c-.179-.626-.671-1.117-.894-1.698-.448-1.028-.179-2.235.268-3.307.358-.76.805-1.565.76-2.369-.045-.536-.268-1.028-.447-1.519-.358-1.207-.313-2.503-.224-3.754.045-.76.09-1.565.403-2.235.313-.715.894-1.341,1.655-1.475c1.028-.179,2.057.626,2.415,1.609.403.983.313,2.056.179,3.084s-.268,2.1.045,3.128c.313,1.162,1.163,2.056,1.655,3.173.581,1.341.447,2.994-.269,4.246-.358.625-.894,1.206-1.118,1.921-.447,1.475.492,3.039.671,4.559.134.983-.09,2.056-.76,2.771-1.476,1.698-3.936.536-4.473-1.386-.269-.983-.582-2.234-.447-3.262.134-1.162.939-2.279.581-3.486Z" fill="#4bbd6d"/><path d="M406.045,158.61h-9.84l-3.265-15.821h16.37l-3.265,15.821Z" fill="#d5d5d7"/><path d="M415.282,158.899h-189.641v6.123h189.641v-6.123Z" fill="none" stroke="#d4dbf1" stroke-width="0.282631" stroke-miterlimit="10"/></g><clipPath id="eWcdClYftyr170"><rect width="190.089" height="113.827" rx="0" ry="0" transform="translate(230.537 62.1438)" fill="#fff"/></clipPath></g><circle id="eWcdClYftyr172" r="24" transform="translate(233 354)" opacity="0" fill="#fff"/><g id="eWcdClYftyr173" opacity="0" mask="url(#eWcdClYftyr193)"><g><path d="M233.638,388.547c0,0-1.35,1.373-2.699,2.915-.579.626-1.133,1.301-1.615,1.903-1.615,2.024-3.133,2.603-4.916,4.578-1.109,1.229-2.555,2.169-5.254,2.603-2.699.433-12.58,1.132-12.58,1.132s-.241-1.301-.072-1.735c.048-.12-.073-.361-.241-.698-.434-.868-1.157-2.193.241-2.362c1.904-.217,11.182-2.457,11.616-3.132s2.94-3.783,4.29-6.602c1.349-2.819,3.373-6.265,5.446-9.638c1.808-2.964,2.338-3.108,3.302-3.975l1.132,6.891l1.35,8.12Z" fill="#6d9bff"/><path d="M249.883,361.68c0,0-.675,1.976-.747,3.687-.073,1.711-.073,4.072.433,4.987.507.916,5.784,4,5.784,4s-6,1.253-11.929.892c-5.929-.362-7.206-2.868-7.206-2.868s4.507-1.759,4.627-2.216c.121-.458.988-3.856.988-3.856l8.05-4.626Z" fill="#f6c1aa"/><path d="M249.449,370.041c-.362-1.06-.362-3.132-.313-4.674.072-1.711.747-3.687.747-3.687l-8.026,4.578c0,0-.867,3.422-.988,3.855-.12.458-4.627,2.217-4.627,2.217s.048.097.169.241c4.362-.723,8.7-1.614,13.038-2.53Z" opacity="0.28" fill="#eb9271"/><path d="M239.423,361.271c.193-1.421.241-6.602.241-6.602l6.917-2.433l6.049,3.373c0,0-1.446,4.578-1.47,6.024-.024,1.445-.12,3.373-1.036,4.746-.892,1.374-3.254,3.518-3.808,3.783-1.663.771-2.747.241-4.001-.482-.53-.313-1.253-1.879-1.952-3.373-.723-1.494-1.132-3.614-.94-5.036Z" fill="#fdd2bb"/><path d="M250.268,357.681c0,0,.025,1.855.507,3.06.096.241.024.964-.073,1.831.241-.289.506-.554.747-.819.506-.53.964-1.06,1.398-1.614.265-1.061.723-2.482.699-3.301-.048-2.482-.048-3.856-4.579-6.072-.867-.41-2.627-1.566-3.518-1.229-1.35.506-1.736.988-2.796,1.879c0,0-1.422-.289-3.205,1.639-1.037,1.132-.723,2.771-.675,3.999.12,2.506.795,2.362.795,2.362.097-1.277.587-1.225.973-3.152.12-.651.295-.825.969-.97.627-.145.926-1.01,3.023,1.086c1.253,1.253,1.928,1.156,5.735,1.301Z" fill="#5c3000"/><path d="M250.437,361.585c.338-1.253.868-2.169,1.446-2.145.555.048,1.133,1.084.434,2.265s-1.157,1.904-1.542,2.361c-.386.506-.555-1.686-.338-2.481Z" fill="#fdd2bb"/><path d="M250.774,361.729c.193-.675.506-1.518,1.012-1.47.507.048.579.603-.12,1.566-.699.94-.844,1.446-.844,1.446s-.144-1.156-.048-1.542Z" fill="#eb9271"/><path d="M244.725,387.052c-.747,4.385-1.085,15.156-2.94,14.337-1.013-.458-4.146-.434-6.797-.338-2.169.097-3.976.241-3.976.241s-.121-4.867-.072-9.831c.024-2.385.072-4.77.217-6.674.048-.626.072-1.229.096-1.807.169-5.566-.747-8.794-.096-9.421.723-.699,9.133-2.819,9.543-3.831l.627,2.964c1.542,2.457,3.542,1.71,3.542,1.71s.603,8.265-.144,12.65Z" fill="#6d9bff"/><path d="M242.748,375.222c-.409,2.433-.506,4.337-1.205,9.011-.699,4.675-.361,6.602-.675,9.542-.313,2.939-.891,7.301-.891,7.301l5.037.746c0,0,.168-8.433.433-14.36.266-5.927,1.254-11.204,1.254-11.204l.674-3.614c0,0-1.855,1.976-3.783,1.783-1.952-.241-.844.795-.844.795Z" fill="#2c5cff"/><path d="M257.811,378.715c-.193,1.808.65,4.048.265,6.578-.265,1.687-.603,3.735-.964,5.783-.506,2.915-.217,10.288-.217,10.288s-11.496-.409-13.448.145c-1.928.53-.723-10.168-.843-14.625-.121-4.458,1.687-12.506,1.687-12.506s1.494,0,3.783-1.783c1.422-1.084,1.663-2.53,1.663-2.53.265,1.037,8.098,3.398,8.724,4.217.097.12.169.361.217.675.072.795-.699,2.072-.867,3.758Z" fill="#6d9bff"/><path d="M244.267,374.378c.699-.192,3.036-1.494,3.904-2.65.867-1.157,1.108-2.458,1.108-2.458s.82,1.325.916,2.169c.097.843-1.88,4.939-2.241,6.072c0,0-.627-.121-1.783-1.109-1.157-.988-1.904-2.024-1.904-2.024Z" fill="#2c5cff"/><path d="M240.99,369.608c0,0-.386.578.482,2c.867,1.421,2.771,2.795,2.771,2.795l-3.085,2.987c0,0-.723-1.783-1.156-3.325-.434-1.542-.362-3.18-.145-3.662.241-.458,1.133-.795,1.133-.795Z" fill="#2c5cff"/><path d="M245.182,381.004c-.024.458-.409.771-.867.747s-.771-.409-.747-.867.409-.771.867-.747.796.41.747.867Z" fill="#2c5cff"/><path d="M244.556,389.679c-.024.457-.41.771-.868.747-.458-.025-.771-.41-.747-.868s.41-.771.868-.747c.457.024.795.41.747.868Z" fill="#2c5cff"/><path d="M248.604,384.209c2.001.169,4.194.41,5.037.313v1.277c0,0-2-.216-3.759-.216-2.507,0-2.507,0-2.507,0l.217-1.374c0,0-.024-.072,1.012,0Z" fill="#2c5cff"/><path d="M267.909,397.847c0,0-2.241-1.229-4.049-2.048-1.807-.819-4.434.65-4.434.65s-.313-.843-.771-1.903c-.458-1.108-1.036-2.458-1.567-3.446-.289-.578-.554-1.012-.771-1.229-.916-.963-.819-2.096-1.084-2.65c0-.024-.024-.048-.024-.072-.193-.723.313-3.663.867-6.337.579-2.771,1.35-7.084,1.35-7.084.265.241,1.181.458,1.663,1.036c0,0,3.277,4.964,4.651,8.385c2.506,6.216,2.916,7.494,3.326,9.783.457,2.264.843,4.915.843,4.915Z" fill="#6d9bff"/><path d="M260.945,393.028c0,0-1.808,1.397-4.314,2.168-2.748.844-4.435,1.109-4.435,1.109s.193,2.265.266,4.626c0,0,6.024.94,9.953.193c3.928-.771,4.916-.627,5.567-2.338.65-1.71-.434-5.059-.94-6.529-.506-1.494-3.663-.338-6.097.771Z" fill="#6d9bff"/><path d="M251.473,396.281c.651.867.626,2.168.795,3.975.121,1.253-.313,1.229-.313,1.229l3.302-.096c0,0,.361-1.904-.145-3.663-.53-1.759-.53-1.759-.53-1.759l-3.109.314Z" fill="#2c5cff"/></g><mask id="eWcdClYftyr193" mask-type="alpha" x="-150%" y="-150%" height="400%" width="400%"><path d="M270.036,371.885c0,4.795-1.341,9.28-3.661,13.095-.645,1.057-1.367,2.063-2.14,2.991-.49.593-1.032,1.185-1.573,1.727-1.341,1.34-2.811,2.526-4.435,3.531-3.455,2.166-7.478,3.532-11.784,3.79-.541.025-1.083.051-1.624.051-5.131,0-9.927-1.546-13.898-4.176-1.212-.799-2.321-1.675-3.378-2.655-1.908-1.779-3.532-3.867-4.796-6.161-2.011-3.609-3.146-7.785-3.146-12.219c0-6.96,2.811-13.275,7.401-17.838c4.564-4.563,10.855-7.372,17.843-7.372c6.961,0,13.279,2.809,17.843,7.372c4.538,4.614,7.348,10.904,7.348,17.864Z" fill="#dfebfd"/></mask></g><line x1="607.186" y1="451.328" x2="162.335" y2="451.328" fill="none" stroke="#000" stroke-width="1.11491"/><path d="M538,170c43,30.5-6,95.5-31,98" fill="none" stroke="#685ed6" stroke-linecap="round" stroke-linejoin="round" stroke-dasharray="5,7"/><path d="M128,143.5C68.5,210.833,34.6002,329.8,75.0002,405C125.5,499,223,507,386,519.5" fill="none" stroke="#18e1f7" stroke-linecap="round" stroke-linejoin="round" stroke-dasharray="5,7"/><path d="M496.5,142.5c-13.667-6.167-31.8-15.1-35-33.5s31.5-50.5,6.5-63" fill="none" stroke="#685ed6" stroke-linecap="round" stroke-linejoin="round" stroke-dasharray="5,7"/><g id="eWcdClYftyr199_to" style="offset-path:path('M46.298323,57.36805C79.148532,69.806435,123.319362,96.030562,106.582982,133.19714Q74.172362,266.010922,57.435983,303.1775C58.241423,371.41305,62.170796,415.751721,90.566552,431.111978Q124.815608,468.604755,153.211365,483.965012C274.804154,515.24381,345.065801,519.3039,363.996306,513.561062');offset-rotate:0deg"><g id="eWcdClYftyr199_tr" transform="rotate(0)"><g transform="translate(-46.298323,-57.368049)"><path d="M36.3406,68.4383l55.6961,9.253L55.5014,51.2787l-2.0562,8.2001-13.6261,2.183-3.4785,6.7765Z" fill="#685ed6"/><path d="M92.0374,77.6908L46.058,52.4339L0.559244,49.1293L92.0374,77.6908Z" fill="#18e1f7"/><path d="M55.5006,51.2786L92.0359,77.6912L64.1596,37.0448l-8.659,14.2338Z" fill="#18e1f7"/></g></g></g><g id="eWcdClYftyr203_to" style="offset-path:path('M647.906494,40.879601C651.216667,96.612645,602.632787,133.778857,546.768844,110.05117C456.210958,19.858093,439.169597,86.877295,416.624,124.408265C366.394221,180.997019,332.720715,180.760694,315.931468,136.600006');offset-rotate:0deg"><g id="eWcdClYftyr203_tr" transform="rotate(0)"><g transform="translate(-647.906494,-40.8796)"><path d="M654.272,42.3998L623.74,55.2327l17.268-20.0294l2.286,4.4017l8.073-.6015l2.905,3.3963Z" fill="#685ed6"/><path d="M623.74,55.2324l22.814-20.6507l25.519-8.0552L623.74,55.2324Z" fill="#18e1f7"/><path d="M641.008,35.2036L623.741,55.2322l10.394-26.9787l6.873,6.9501Z" fill="#18e1f7"/></g></g></g><g id="eWcdClYftyr207_ts" transform="translate(347.264496,94.715847) scale(1,2.237766)"><path d="M350.942,93.9146c0,0-3.678.626-7.355-.4245c0,0,.525,2.1009,4.203,2.4515c2.627-.3506,3.152-2.027,3.152-2.027Z" transform="translate(-347.264496,-94.715847)" fill="#fff"/></g><g id="eWcdClYftyr208_to" style="offset-path:path('M460.62358,547.838238L494.16542,519.5C524.050991,535.374543,585.125126,536.575053,616.921015,527.164521C640.611203,521.184109,666.57778,512.911404,673.500001,479.141082C684.431511,447.266041,666.559769,443.156894,661.837048,417.515025Q628.462722,301.848398,623.74,276.206529');offset-rotate:0deg"><g id="eWcdClYftyr208_tr" transform="rotate(-9.138668)"><g transform="translate(-452.83049,-548.645019)"><path d="M447.819,562.688l42.14-17.552-35.322-1.091l1.669,5.941-8.631,7.049.144,5.653Z" fill="#685ed6"/><path d="M489.959,545.135l-41.439,3.574-32.819,16.975l74.258-20.549Z" fill="#18e1f7"/><path d="M454.638,544.045l35.322,1.09-34.686-13.529-.636,12.439Z" fill="#18e1f7"/></g></g></g><path d="M491.5,520.5c67.5,16.5,182,29,182-53C673.5,380.43,639,383,617,253" fill="none" stroke="#18e1f7" stroke-linecap="round" stroke-linejoin="round" stroke-dasharray="5,7"/></svg>
