<svg id="ebzT2MseSkB1" xmlns="http://www.w3.org/2000/svg" xmlns:xlink="http://www.w3.org/1999/xlink" viewBox="0 0 68 68" shape-rendering="geometricPrecision" text-rendering="geometricPrecision">
<style><![CDATA[
#ebzT2MseSkB2 {animation: ebzT2MseSkB2_c_o 1500ms linear infinite normal forwards}@keyframes ebzT2MseSkB2_c_o { 0% {opacity: 0} 100% {opacity: 1}}
]]></style>
<path id="ebzT2MseSkB2" d="M9.1,53.5564c0-1.6541-1.36843-3.0001-3.05-3.0001s-3.05,1.346-3.05,3.0001s1.36843,3,3.05,3s3.05-1.346,3.05-3Zm-4.06667,0c0-.552.45547-1,1.01667-1s1.01667.448,1.01667,1-.45547,1-1.01667,1-1.01667-.448-1.01667-1ZM3,39.0006c0,1.654,1.36843,3,3.05,3s3.05-1.346,3.05-3-1.36843-3.0001-3.05-3.0001-3.05,1.3461-3.05,3.0001Zm3.05-1c.5612,0,1.01667.448,1.01667,1s-.45547,1-1.01667,1-1.01667-.448-1.01667-1s.45547-1,1.01667-1Zm25.4167,9.0001c0,.552.4554,1,1.0166,1h2.0334c1.6815,0,3.05,1.346,3.05,3.0001s-1.3685,3-3.05,3v2.0001h-2.0334v-2.0001c-1.6815,0-3.05-1.346-3.05-3h2.0334c0,.552.4554,1,1.0166,1h2.0334c.5612,0,1.0166-.448,1.0166-1s-.4554-1-1.0166-1h-2.0334c-1.6815,0-3.05-1.3461-3.05-3.0001s1.3685-3,3.05-3v-2.0001h2.0334v2.0001c1.6815,0,3.05,1.346,3.05,3h-2.0334c0-.552-.4554-1-1.0166-1h-2.0334c-.5612,0-1.0166.448-1.0166,1ZM64,53.5564c0,1.654-1.3684,3-3.05,3s-3.05-1.346-3.05-3s1.3684-3.0001,3.05-3.0001s3.05,1.346,3.05,3.0001Zm-2.0333,0c0-.552-.4555-1-1.0167-1s-1.0167.448-1.0167,1s.4555,1,1.0167,1s1.0167-.448,1.0167-1ZM60.95,36.0005c1.6816,0,3.05,1.3461,3.05,3.0001s-1.3684,3-3.05,3-3.05-1.346-3.05-3s1.3684-3.0001,3.05-3.0001Zm0,2.0001c-.5612,0-1.0167.448-1.0167,1s.4555,1,1.0167,1s1.0167-.448,1.0167-1-.4555-1-1.0167-1ZM55.8667,54.5564v-2h-2.0334v-5.0001h-4.0666v2h2.0333v5.0001h4.0667Zm0-14.5558v-2h-4.0667v5h-2.0333v2.0001h4.0666v-5.0001h2.0334ZM11.1333,52.5564v2h4.0667v-5.0001h2.0333v-2h-4.0666v5.0001h-2.0334Zm6.1-9.5558h-2.0333v-5h-4.0667v2h2.0334v5.0001h4.0666v-2.0001Zm12.2-20.0003v-.465l-.3334-.219c-1.5077-.99-2.4736-2.57-2.6739-4.3161h-1.0593c-1.6816,0-3.05-1.346-3.05-3c0-.737.2826-1.405.733-1.928-.4758-.9541-.733-1.9991-.733-3.0721C22.3167,6.14105,25.51,3,29.4333,3h8.1334c3.9233,0,7.1166,3.14105,7.1166,7.0001c0,1.073-.2572,2.118-.732,3.0731.4504.523.732,1.19.732,1.927c0,1.654-1.3684,3-3.05,3h-1.0593c-.2003,1.7461-1.1661,3.3271-2.6739,4.3161l-.3334.219v.465h15.25c.4534,0,.8682.152,1.2068.399l.4056-.399c1.3105-1.289,3.598-1.289,4.9085,0h.5957c1.6816,0,3.05,1.346,3.05,3.0001v2c0,1.654-1.3684,3.0001-3.05,3.0001h-5.0833-3.05-9.15v3.999h1.8005l2.6586,9.1542c.4148,1.421.6242,2.895.6242,4.378c0,4.9881-2.4227,9.7552-6.4802,12.7492L38.38,63.4C36.978,64.432,35.2446,65,33.5,65s-3.476-.566-4.8749-1.596l-2.8772-2.1231c-4.0585-2.994-6.4812-7.7601-6.4812-12.7492c0-1.483.2094-2.957.6242-4.38l2.6576-9.1522h1.8015v-3.999h-9.15-3.05-5.08333c-1.68157,0-3.05-1.3461-3.05-3.0001v-2c0-1.6541,1.36843-3.0001,3.05-3.0001h.59576c1.31049-1.289,3.59797-1.289,4.90847,0l.4057.399c.3385-.247.7533-.399,1.2067-.399h15.25ZM12.15,29.0004v-3.586l-1.0167-1.0001c-.5439-.533-1.48938-.533-2.0333,0l-.59577.5861h-1.43756c-.5612,0-1.01667.448-1.01667,1v2c0,.552.45547,1,1.01667,1h5.08333Zm30.7684,7.9991h-2.7064c-1.7934,0-3.5288-.518-5.0203-1.496L33.5,34.3935l-1.6927,1.11c-1.4905.979-3.228,1.496-5.0234,1.496h-2.7013L21.847,44.7017c-.363,1.245-.547,2.533-.547,3.83c0,4.3621,2.1187,8.5302,5.6679,11.1492l2.8752,2.122c2.0984,1.5431,5.2134,1.5451,7.3179-.004l2.8711-2.118C43.5813,57.0629,45.7,52.8948,45.7,48.5317c0-1.297-.184-2.585-.5449-3.828l-2.2367-7.7042ZM55.8667,24.4143L54.85,25.4144v3.586h5.0833c.5612,0,1.0167-.448,1.0167-1v-2c0-.552-.4555-1-1.0167-1h-1.4375L57.9,24.4143c-.5439-.533-1.4894-.533-2.0333,0Zm-3.05.5861h-12.5182-2.7318L33.5,28.4144l-3.5702-3.414h-3.2282-12.5183v4h1.0167h11.1833v5.9991h.4006c1.3928,0,2.7399-.401,3.8949-1.16L33.5,31.9885l2.8202,1.851c1.156.759,2.501,1.16,3.8908,1.16h.4057v-5.9991h11.1833h1.0167v-4ZM42.65,15.0002c0-.552-.4555-1-1.0167-1h-1.0166v.618v1.382h1.0166c.5612,0,1.0167-.448,1.0167-1Zm-17.2833,1h1.0166v-2h-1.0166c-.5612,0-1.0167.448-1.0167,1s.4555,1,1.0167,1Zm3.6488-6.5841c.975-.319,2.0191-.248,2.9392.20601l1.6531.81299c.7513.37,1.5931.565,2.4339.565.8438,0,1.6876.144,2.4837.419l.9455.1787l1.1458.4023h1.0166c.1932,0,.3803.022.5633.056.2968-.644.4534-1.342.4534-2.056c0-2.75703-2.2804-5.00007-5.0833-5.00007h-8.1334c-2.8029,0-5.0833,2.24304-5.0833,5.00007c0,.714.1566,1.412.4524,2.056.184-.034.3711-.056.5643-.056h1.1651c.3355-1.194,1.2454-2.17799,2.4837-2.584Zm1.2119,11.2362l.3334.219c.5673.372.9059.994.9059,1.664v1.051L33.5,25.5864l2.0333-2.0001v-1.051c0-.67.3386-1.292.9059-1.664l.3335-.219c1.1335-.744,1.8106-1.988,1.8106-3.3281v-3.706l-.1067-.053c-.7523-.37-1.5941-.565-2.4349-.565-1.155,0-2.3109-.269-3.3438-.7761l-1.6532-.813c-.4351-.214-.9292-.248-1.3846-.098-.7442.245-1.2434.925-1.2434,1.6951v4.316c0,1.3401.6771,2.5841,1.8107,3.3281Z" opacity="0" fill="#685ed6"/></svg>
