<svg id="eLzMxKpEWmb1" xmlns="http://www.w3.org/2000/svg" xmlns:xlink="http://www.w3.org/1999/xlink" viewBox="0 0 68 68" shape-rendering="geometricPrecision" text-rendering="geometricPrecision">
<style><![CDATA[
#eLzMxKpEWmb2 {animation: eLzMxKpEWmb2_c_o 1500ms linear infinite normal forwards}@keyframes eLzMxKpEWmb2_c_o { 0% {opacity: 0} 100% {opacity: 1}}
]]></style>
<path id="eLzMxKpEWmb2" style="mix-blend-mode:multiply" d="M27.6251,15.2193h-6.6056L34.0001,0.519592L46.9806,15.2182h-6.6055v24.0943h-2.125v-26.2182h4.0194L34.0001,3.73047L25.7306,13.0943h4.0195v26.2182h-2.125v-24.0932ZM15.9376,41.4375h36.125v25.5h-36.125v-25.5Zm34,2.125h-11.6875v21.25h11.6875v-21.25Zm-25.5,1.6023c0,.2879.2348.5227.5227.5227h4.267c.288,0,.5228-.2348.5228-.5227v-1.6023h-5.3125v1.6023Zm-6.375,19.6477h18.0625v-21.25h-4.25v1.6023c0,1.4599-1.1879,2.6477-2.6478,2.6477h-4.267c-1.4598,0-2.6477-1.1878-2.6477-2.6477v-1.6023h-4.25v21.25Zm-8.50002,2.125h2.12502v-35.0625h-2.0772l5.2647-6.7692l5.2647,6.7692h-2.0772v7.4375h2.125v-5.3125h4.2978L14.8751,21.6442L5.26477,34h4.29781v32.9375Zm38.25002-38.25v10.625h2.125v-12.75h-2.0772l5.2647-6.7692l5.2647,6.7692h-2.0772v40.375h2.125v-38.25h4.2978L53.1251,16.3317L43.5148,28.6875h4.2978Z" opacity="0" fill="#685ed6"/></svg>
