<svg id="eo1NirmYkj31" xmlns="http://www.w3.org/2000/svg" xmlns:xlink="http://www.w3.org/1999/xlink" viewBox="0 0 68 68" shape-rendering="geometricPrecision" text-rendering="geometricPrecision">
<style><![CDATA[
#eo1NirmYkj32 {animation: eo1NirmYkj32_c_o 1500ms linear infinite normal forwards}@keyframes eo1NirmYkj32_c_o { 0% {opacity: 0} 100% {opacity: 1}}
]]></style>
<path id="eo1NirmYkj32" d="M15.7584,28.6505l-.1088-.2175l1.8532-.9271.1087.2185c.3947.7904,1.1881,1.2803,2.0717,1.2803s1.677-.4909,2.0717-1.2803l.1088-.2185l1.8531.9271-.1088.2185c-.7479,1.4958-2.2519,2.4249-3.9248,2.4249s-3.1779-.9291-3.9248-2.4259ZM0.002209,52.8291v-.9053c0-3.0392.834889-5.9851,2.401081-8.5716L0.412403,39.8687c-.412266-.7189-.518958-1.5569-.300395-2.3597.218563-.8007.736484-1.4688,1.457432-1.88.46509-.2673.99752-.4092,1.5403-.4092c1.11456,0,2.14833.6008,2.6994,1.5693l1.00063,1.7506c1.08038-.7883,2.25503-1.445,3.49393-1.9516-2.29236-1.1352-4.06468-3.151-4.87989-5.5718-2.47981-.3832-4.38576-2.5326-4.38576-5.1191v-.6785c0-.3004.0259-.5997.07769-.8897L2.8891,14.1259C4.31339,5.94171,11.3758,0.00116,19.6832,0.00116s15.3699,5.94055,16.7941,14.12474L38.2517,24.331c.0508.288.0767.5873.0767.8877v.6785c0,2.5865-1.906,4.7359-4.3858,5.1181-.8152,2.4218-2.5875,4.4376-4.8819,5.5728c6.1094,2.5151,10.3035,8.5634,10.3035,15.3357v.9053c0,3.9984-3.2536,7.2509-7.2509,7.2509h-3.1075v4.1434h-18.6452v-4.1434h-3.10749c-3.99836,0-7.250901-3.2525-7.250901-7.2509ZM11.3965,58.0083h5.1792v-3.7145L15.5398,53.258c-.5541-.5532-1.5175-.5542-2.0716,0l-.607.607h-1.4647c-.5718,0-1.0359.4651-1.0359,1.0358v2.0717c0,.5707.4641,1.0358,1.0359,1.0358ZM7.91708,44.6532L6.1893,45.8051l3.42242,5.9882h.74888v-2.8641l-2.44352-4.276ZM14.504,43.5065h-2.0717v7.9408c1.3642-.9675,3.3665-.8587,4.5722.3449l.4133.4144c.345-.2559.7676-.4133,1.2296-.4133h8.2867v-8.2868h-2.0717c0,1.1426-.9291,2.0717-2.0717,2.0717h-6.215c-1.1425,0-2.0717-.9291-2.0717-2.0717Zm8.2867-21.7527c0,1.7133,1.3943,3.1076,3.1076,3.1076s3.1075-1.3943,3.1075-3.1076c0-1.7132-1.3942-3.1075-3.1075-3.1075s-3.1076,1.3943-3.1076,3.1075Zm-.2827-3.8833c-1.7858-.6889-3.3955-1.8127-4.6551-3.324L16.6368,13.088c-.347-.4175-.8577-.6567-1.4005-.6567-.696,0-1.3217.3863-1.6324,1.0089l-.4361.8742-1.56.52c-.7458.2486-1.2472.9447-1.2472,1.7309v1.0721c.8681-.6577,1.9371-1.0628,3.1076-1.0628c2.5005,0,4.5929,1.7827,5.0746,4.1434h2.2809c.2299-1.1322.8452-2.1141,1.6843-2.8475Zm-9.0398.7758c-1.7133,0-3.1076,1.3943-3.1076,3.1075c0,1.7133,1.3943,3.1076,3.1076,3.1076s3.1075-1.3943,3.1075-3.1076c0-1.7132-1.3943-3.1075-3.1075-3.1075Zm-3.1076,7.3721c0,2.5793,1.6439,4.8591,4.0906,5.6744c1.271.4247,2.1245,1.6086,2.1245,2.948v1.4885l.2507,1.0027c.3283,1.3144,1.503,2.2312,2.8568,2.2312s2.5275-.9168,2.8569-2.2302l.2506-1.0027v-1.4885c0-1.3393.8536-2.5243,2.1246-2.948c2.4466-.8152,4.0905-3.0951,4.0905-5.6744v-.1481c-.868.6578-1.937,1.0628-3.1075,1.0628-2.5006,0-4.593-1.7827-5.0746-4.1434h-2.2809c-.4817,2.3607-2.5731,4.1434-5.0746,4.1434-1.1705,0-2.2395-.405-3.1076-1.0628v.1471Zm6.2151,15.4165v2.0716h6.2161l-.0011-2.0716h-6.215ZM26.9341,60.08h-7.2509-3.1075-4.1434v2.0717h14.5018v-2.0717ZM25.8278,37.7441l-1.2399-.2662-.0393.1575c-.1782.7126-.5148,1.3455-.9489,1.8925.7417.3159,1.2627,1.0513,1.2627,1.907h4.1434v10.3584h3.7477l1.3217,2.6445-1.8531.9271-.7489-1.4999h-12.8258v4.1433h1.0358h12.4301c2.8558,0,5.1792-2.3234,5.1792-5.1792v-.9053c0-6.792-4.8218-12.7554-11.4647-14.1797ZM11.586,34.9142l1.7558.7531l1.1612-.2486v-.7769c0-.4464-.2839-.8421-.7085-.983-3.294-1.098-5.50659-4.1672-5.50659-7.6394v-9.4551c0-1.6791,1.07003-3.1645,2.66319-3.6959l.7447-.2476.0539-.1067c.665-1.329,2.0002-2.1545,3.4856-2.1545c1.1591,0,2.2509.5107,2.9936,1.4025l1.2161,1.4585c1.1622,1.3953,2.6859,2.3917,4.3754,2.92-.231-.4381-.4061-.9126-.491-1.4253-.2269-1.359-1.3176-2.284-2.6103-2.284v-2.0717c2.3089,0,4.2604,1.6532,4.6395,3.931.2268,1.359,1.3186,2.284,2.6114,2.284h2.0716h1.0359v9.4438c0,3.4722-2.2136,6.5424-5.5066,7.6393-.4236.1409-.7085.5366-.7085.9831v.7768l1.1612.2486l1.7547-.753c2.1639-.9271,3.7954-2.8424,4.3661-5.1254l.1947-.7831h.809c1.7133,0,3.1076-1.3942,3.1076-3.1075v-.6785c0-.1771-.0156-.3542-.0456-.5303L34.4347,14.4812C33.1854,7.29142,26.9807,2.07284,19.6832,2.07284s-13.50219,5.21858-14.75349,12.40836L3.15531,24.6863c-.03107.1782-.04661.3553-.04661.5324v.6785c0,1.7133,1.39424,3.1075,3.10753,3.1075h.80899l.19474.7842c.57178,2.283,2.20324,4.1993,4.36604,5.1253ZM7.85597,40.37l2.50463,4.3827v-3.3178h4.1434c0-.8557.521-1.5911,1.2627-1.907-.434-.547-.7707-1.1799-.9488-1.8925l-.0394-.1575-1.2409.2662c-2.0655.4424-4.00253,1.3591-5.68163,2.6259ZM2.20959,38.8401l2.95008,5.1626l1.72778-1.1519-2.87757-5.0362c-.27346-.4796-.93847-.6598-1.41185-.3874-.24239.1388-.41434.3605-.48788.6277-.07251.2672-.03729.5459.09944.7852Zm-.1357,13.989c0,2.8558,2.3234,5.1792,5.17922,5.1792h1.22643c-.11601-.3252-.19059-.6712-.19059-1.0358v-2.0717c0-.3646.07458-.7106.19059-1.0358h-1.62213l-.74995,1.4988-1.85312-.9271l1.32277-2.6434h1.64906L3.60487,45.456c-1.00062,2.0023-1.53098,4.2055-1.53098,6.4678v.9053ZM60.6052,23.3977l-4.8519,3.9052c-.5334.4288-1.2036.666-1.8873.666-.6836,0-1.3549-.2362-1.8873-.666l-4.8519-3.9062c-2.3006-1.8511-3.6192-4.6116-3.6192-7.5741c0-.8618.1139-1.7195.3398-2.5513l2.2943-8.46487.7572-.03107c2.2737-.09426,4.4718-.62358,6.5341-1.57241l.433-.19888.433.19888c2.0613.94883,4.2594,1.47711,6.5341,1.57241l.7572.03107l2.2944,8.46387c.2258.8328.3397,1.6905.3397,2.5513c0,2.9646-1.3196,5.7251-3.6192,7.5761Zm1.5476-7.5751c0-.6785-.0902-1.3549-.2673-2.0095L59.9837,6.79939c-1.7464-.13984-3.4452-.52517-5.0818-1.12285v11.93396h-2.0717v-11.93396c-1.6367.59768-3.3365.98198-5.0819,1.12285L45.8465,13.8141c-.1771.6547-.2672,1.3311-.2672,2.0085c0,2.3317,1.0379,4.5049,2.8465,5.9603l4.4044,3.5456v-5.6463h2.0717v5.6463l4.4044-3.5446c1.8085-1.4554,2.8465-3.6286,2.8465-5.9613ZM59.3487,29.3072l-9.626,9.6271-1.3394-1.3393-1.4647,1.4647l2.8041,2.804L60.8134,30.7719l-1.4647-1.4647Zm0,7.2509l-9.626,9.6271-1.3394-1.3393-1.4647,1.4647l2.8041,2.804L60.8134,38.0228l-1.4647-1.4647ZM48.3833,52.0968l-1.4647,1.4647l2.8041,2.804L60.8134,45.2737L59.3487,43.809l-9.626,9.6271-1.3394-1.3393Z" opacity="0" fill="#685ed6"/></svg>
