<svg id="eNu1jXVYD0p1" xmlns="http://www.w3.org/2000/svg" xmlns:xlink="http://www.w3.org/1999/xlink" viewBox="0 0 68 68" shape-rendering="geometricPrecision" text-rendering="geometricPrecision">
<style><![CDATA[
#eNu1jXVYD0p2 {animation: eNu1jXVYD0p2_c_o 1500ms linear infinite normal forwards}@keyframes eNu1jXVYD0p2_c_o { 0% {opacity: 0} 100% {opacity: 1}}
]]></style>
<g id="eNu1jXVYD0p2" opacity="0" clip-path="url(#eNu1jXVYD0p8)"><g><path d="M65.3643,2.571c-.625-.62499-1.5346-.84067-2.3737-.56297L18.1169,16.8606c-1.2226.4046-.5968,2.2958.626,1.8911L63.6165,3.89921c.3124-.03267.4522.10717.4196.41954L45.0002,61.8315c-.1482.4478-.7725.4852-.9733.0583L36.3401,45.5364l3.6467-5.8862c.6783-1.0947-1.0152-2.1438-1.6935-1.049l-3.6093,5.826-9.0045-.7626L50.588,18.756L41.0564,34.1414c-.6783,1.0947,1.0152,2.1439,1.6934,1.049L56.808,12.4985c.542-.8732-.5007-1.913-1.3728-1.3703L22.4508,31.6468L6.03902,23.9101c-.42645-.201-.38873-.8248.05883-.9731l7.65765-2.5345c1.2227-.4046.5967-2.2958-.6259-1.8911L5.47193,21.0459c-2.1139.6996-2.29651,3.7167-.28235,4.6662L21.5699,33.4339l.8964,11.1222c.0387.4816.4299.869.9088.9125l11.1768.9466l7.6721,16.322c.9427,2.0054,3.9683,1.8328,4.6674-.2798L65.9273,4.9448c.2778-.83921.062-1.74868-.563-2.3738ZM24.2789,42.2478l-.636-7.8921-.0847-1.0516L49.1303,17.3966L24.2789,42.2478Z" fill="#685ed6"/><path d="M19.5063,47.8883c-.3952-.3828-1.0258-.3726-1.4084.0225L0.283634,66.3077c-.893928.923.532027,2.3143,1.431006,1.3859L19.5289,49.2968c.3828-.3952.3727-1.0258-.0226-1.4085Z" fill="#685ed6"/><path d="M25.9022,47.9152L11.8224,62.5776c-.8895.9262.5408,2.3128,1.4368,1.3799L27.3391,49.2951c.892-.929-.5447-2.3087-1.4369-1.3799Z" fill="#685ed6"/><path d="M4.31934,56.3827c.26163,0,.52299-.1026.71862-.3062L19.1177,41.4142c.8921-.929-.5448-2.3087-1.4369-1.3799L3.60098,54.6967c-.5736.5973-.10598,1.686.71836,1.686Z" fill="#685ed6"/></g><clipPath id="eNu1jXVYD0p8"><rect width="68" height="68" rx="0" ry="0" fill="#fff"/></clipPath></g></svg>
